<svg width="575" height="160" viewBox="0 0 575 160" fill="none" xmlns="http://www.w3.org/2000/svg">
<path d="M540.878 130.538C533.869 130.538 527.733 129.388 522.478 127.087C517.219 124.678 513.111 121.556 510.156 117.723C507.198 113.78 505.391 109.454 504.732 104.744L519.354 99.6509H520.013C520.56 103.156 521.712 106.222 523.462 108.851C525.326 111.48 527.733 113.506 530.692 114.93C533.758 116.244 537.153 116.901 540.878 116.901C543.944 116.901 546.685 116.409 549.092 115.423C551.504 114.328 553.31 112.849 554.512 110.987C555.829 109.125 556.487 106.989 556.487 104.58C556.487 101.513 555.5 99.1031 553.529 97.3508C551.668 95.489 548.874 94.0651 545.15 93.0794L528.886 89.3007C524.943 88.3146 521.437 87.0553 518.371 85.5219C515.305 83.879 512.729 81.5242 510.65 78.4574C508.568 75.3906 507.527 71.5024 507.527 66.7927C507.527 62.1925 508.84 58.0302 511.469 54.3066C514.099 50.4731 517.712 47.461 522.313 45.2704C527.021 43.0798 532.388 41.9847 538.413 41.9847C544.22 41.9847 549.421 42.9156 554.022 44.7774C558.623 46.6396 562.344 49.2681 565.192 52.6637C568.151 55.9495 570.122 59.8377 571.109 64.3284L556.323 68.764H555.665C554.899 64.3831 552.928 60.9876 549.751 58.578C546.685 56.0589 542.903 54.7992 538.413 54.7992C534.141 54.7992 530.639 55.8947 527.898 58.0854C525.272 60.2756 523.955 62.795 523.955 65.6425C523.955 68.2714 524.886 70.4069 526.75 72.0501C528.61 73.5831 531.24 74.7881 534.635 75.6643L549.257 79.2788C554.187 80.4834 558.348 81.9621 561.743 83.7148C565.138 85.4672 567.875 87.9862 569.957 91.2719C572.04 94.5577 573.081 98.9389 573.081 104.415C573.081 109.344 571.71 113.78 568.974 117.723C566.233 121.666 562.401 124.787 557.471 127.087C552.652 129.388 547.121 130.538 540.878 130.538Z" fill="#034638"/>
<path d="M456.902 130.538C448.795 130.538 441.511 128.621 435.05 124.787C428.588 120.954 423.551 115.697 419.934 109.015C416.32 102.225 414.514 94.6128 414.514 86.1791C414.514 77.7454 416.32 70.1879 419.934 63.507C423.551 56.8256 428.588 51.5682 435.05 47.7347C441.511 43.9012 448.795 41.9847 456.902 41.9847C465.006 41.9847 472.29 43.9012 478.751 47.7347C485.212 51.5682 490.253 56.8804 493.867 63.6712C497.591 70.3521 499.451 77.8549 499.451 86.1791C499.451 94.6128 497.591 102.225 493.867 109.015C490.253 115.697 485.212 120.954 478.751 124.787C472.29 128.621 465.006 130.538 456.902 130.538ZM456.902 116.573C461.94 116.573 466.429 115.259 470.372 112.63C474.315 110.001 477.384 106.387 479.574 101.787C481.874 97.1866 483.023 91.9839 483.023 86.1791C483.023 80.374 481.874 75.2264 479.574 70.7357C477.384 66.1355 474.315 62.5209 470.372 59.8924C466.429 57.2635 461.94 55.9495 456.902 55.9495C451.861 55.9495 447.371 57.2635 443.428 59.8924C439.486 62.5209 436.42 66.1355 434.23 70.7357C432.037 75.2264 430.942 80.374 430.942 86.1791C430.942 91.9839 432.037 97.1866 434.23 101.787C436.42 106.387 439.486 110.001 443.428 112.63C447.371 115.259 451.861 116.573 456.902 116.573Z" fill="#034638"/>
<path d="M399.91 130.567C392.354 130.567 386.276 128.376 381.674 123.995C377.183 119.504 374.938 112.933 374.938 104.28V57.1284H359.659V43.6563C365.026 43.6563 368.695 43.2731 370.667 42.5064C372.747 41.6302 374.062 39.9326 374.61 37.4134C375.267 34.8942 375.595 30.3489 375.595 23.7772H390.708V43.6563H413.055V57.1284H390.708V103.294C390.708 107.785 391.807 111.125 393.996 113.316C396.297 115.507 399.145 116.602 402.54 116.602C404.4 116.602 406.042 116.438 407.466 116.109C409.001 115.78 410.479 115.123 411.903 114.137V127.774C410.808 128.54 409.112 129.198 406.812 129.745C404.511 130.293 402.211 130.567 399.91 130.567Z" fill="#034638"/>
<path d="M275.69 158.96V147.788V57.4281V44.2848V43.6276H291.463V55.9495C293.982 51.897 297.76 48.5562 302.799 45.9276C307.947 43.2991 313.423 41.9847 319.228 41.9847C326.676 41.9847 333.412 43.9012 339.435 47.7347C345.569 51.5682 350.334 56.8804 353.729 63.6712C357.124 70.3521 358.822 77.9097 358.822 86.3433C358.822 94.777 357.07 102.389 353.565 109.18C350.169 115.861 345.405 121.118 339.271 124.952C333.248 128.676 326.402 130.538 318.735 130.538C313.149 130.538 307.837 129.223 302.799 126.595C297.76 123.966 293.982 120.625 291.463 116.573V147.788V158.96V159.617H275.69V158.96ZM316.435 116.573C321.473 116.573 325.964 115.313 329.907 112.794C333.85 110.275 336.916 106.715 339.107 102.115C341.298 97.515 342.393 92.3127 342.393 86.5076C342.393 80.4834 341.298 75.1717 339.107 70.5715C336.916 65.9713 333.904 62.4115 330.071 59.8924C326.238 57.2635 321.857 55.9495 316.928 55.9495C312.328 55.9495 308.165 57.0446 304.441 59.2352C300.718 61.3164 297.706 64.2733 295.406 68.1068C293.106 71.8308 291.791 76.1026 291.463 80.9217V91.9292C291.791 96.7483 293.051 101.02 295.241 104.744C297.542 108.468 300.498 111.37 304.113 113.451C307.837 115.532 311.944 116.573 316.435 116.573Z" fill="#034638"/>
<path d="M159.555 128.243L163.498 118.385L206.05 10.4456H222.643L265.195 118.385L269.302 128.243V128.9H250.901L250.573 128.243L246.794 118.385L214.264 33.1178L181.406 118.385L177.628 128.243L177.299 128.9H159.555V128.243ZM181.57 84.5409H245.973V99.4917H181.57V84.5409Z" fill="#034638"/>
<path d="M7.14446 39.8829C4.23651 46.0019 2.20601 52.6197 1.21143 59.5701H59.0923L71.73 39.8829H7.14446Z" fill="#034638"/>
<path d="M137.629 59.5701C136.632 52.6174 134.604 46.0023 131.696 39.8832H97.0029L84.3698 20.1936H117.641C105.215 8.01518 88.1964 0.50415 69.4213 0.50415C50.6458 0.50415 33.63 8.01518 21.2012 20.1913H84.3698L71.7317 39.8809L84.3698 59.5678H137.627L137.629 59.5701Z" fill="#034638"/>
<path d="M33.8282 98.9493L21.1904 118.636C33.6192 130.813 50.6048 138.436 69.3803 138.436C88.1554 138.436 105.429 131.201 117.904 118.636H46.4663L33.8282 98.9493Z" fill="#034638"/>
<path d="M46.4546 79.2574H1.21143C2.2083 86.2124 4.23651 92.8276 7.14446 98.947H33.8212L46.4546 79.2574Z" fill="#034638"/>
<path d="M59.0995 98.9493H131.699C134.607 92.8302 136.637 86.2128 137.632 79.262H71.7372L59.0995 59.5728L46.4614 79.2597" fill="#034638"/>
</svg>
