<svg width="480" height="480" viewBox="0 0 480 480" fill="none" xmlns="http://www.w3.org/2000/svg">
<g clip-path="url(#clip0_3_12542)">
<path d="M131.538 244.226C130.514 262.018 144.21 277.25 162.002 278.274C162.642 278.274 163.282 278.274 163.922 278.274C181.842 278.274 196.306 263.81 196.178 245.89C196.178 227.97 181.714 213.506 163.794 213.634C146.642 213.634 132.434 227.074 131.538 244.226Z" fill="#40C1AC"/>
<path d="M11.0187 235.863C5.25874 235.479 0.266736 239.959 0.0107363 245.719C-0.245264 251.479 4.10674 256.471 9.86674 256.727C15.6267 257.111 20.4907 252.631 20.8747 246.871C21.2587 241.111 16.7787 236.247 11.0187 235.863Z" fill="#40C1AC"/>
<path d="M129.557 56.5284C134.677 53.9684 136.725 47.5684 134.165 42.4484C131.605 37.3284 125.205 35.2804 120.085 37.8404C114.965 40.4004 112.917 46.6724 115.477 51.7924C118.037 57.0404 124.309 59.2164 129.557 56.5284Z" fill="#40C1AC"/>
<path d="M162.319 113.765C170.255 109.797 173.455 100.069 169.487 92.1327C165.519 84.1967 155.791 80.9967 147.855 84.9647C139.919 88.9327 136.719 98.6607 140.687 106.597C144.655 114.533 154.383 117.733 162.319 113.765Z" fill="#40C1AC"/>
<path d="M51.984 153.094C58.128 157.062 66.32 155.398 70.416 149.254C74.384 143.11 72.72 134.918 66.576 130.822C60.432 126.854 52.24 128.518 48.144 134.662C44.048 140.806 45.84 149.126 51.984 153.094Z" fill="#40C1AC"/>
<path d="M71.6606 230.125C62.7006 229.613 55.1485 236.397 54.6365 245.357C54.1245 254.317 60.9085 261.869 69.8685 262.381C78.8285 262.893 86.3806 256.109 86.8926 247.149C87.4046 238.317 80.6206 230.637 71.6606 230.125Z" fill="#40C1AC"/>
<path d="M53.7249 338.521C47.1969 341.849 44.5089 349.785 47.8369 356.441C51.1649 362.969 59.1009 365.657 65.7569 362.329C72.2849 359.001 74.9729 351.065 71.6449 344.409C68.3169 337.881 60.2529 335.193 53.7249 338.521Z" fill="#40C1AC"/>
<path d="M116.437 196.7C125.269 202.46 137.045 200.028 142.677 191.196C148.437 182.364 146.005 170.588 137.173 164.956C128.341 159.196 116.565 161.628 110.933 170.46C105.173 179.164 107.605 190.94 116.437 196.7Z" fill="#40C1AC"/>
<path d="M315.539 112.498C322.963 117.362 333.075 115.314 337.939 107.89C342.803 100.466 340.755 90.3538 333.331 85.4898C325.907 80.6258 315.795 82.6738 310.931 90.0978C305.939 97.6498 307.987 107.634 315.539 112.498Z" fill="#40C1AC"/>
<path d="M348.53 55.5301C353.394 58.7301 359.794 57.3221 362.994 52.4581C366.194 47.5941 364.786 41.1941 359.922 37.9941C355.058 34.7941 348.658 36.2021 345.458 40.9381C342.386 45.8021 343.794 52.3301 348.53 55.5301Z" fill="#40C1AC"/>
<path d="M317.93 213.335C300.138 212.311 284.778 226.007 283.882 243.799C282.858 261.591 296.554 276.951 314.346 277.847C314.986 277.847 315.626 277.847 316.138 277.847C333.93 277.847 348.394 263.383 348.394 245.463C348.522 228.439 335.082 214.231 317.93 213.335Z" fill="#40C1AC"/>
<path d="M172.939 194.427C178.443 205.307 189.579 212.219 201.867 212.219C219.659 212.219 234.123 197.755 234.123 179.835C234.123 174.843 232.971 169.851 230.667 165.243C222.603 149.243 203.147 142.843 187.275 150.907C171.275 159.099 164.875 178.555 172.939 194.427Z" fill="#40C1AC"/>
<path d="M426.297 153.048C432.825 149.72 435.385 141.656 432.057 135.128C428.729 128.6 420.665 126.04 414.137 129.368C407.609 132.696 405.049 140.632 408.249 147.16C411.705 153.688 419.641 156.376 426.297 153.048Z" fill="#40C1AC"/>
<path d="M344.23 163.284C334.886 168.02 331.046 179.412 335.782 188.756C340.518 198.1 351.91 201.94 361.254 197.204C370.598 192.468 374.438 181.076 369.702 171.732C364.966 162.388 353.574 158.676 344.23 163.284Z" fill="#40C1AC"/>
<path d="M238.734 50.6664C246.03 51.0504 252.302 45.4184 252.814 38.1224C253.326 30.8264 247.566 24.5544 240.27 24.0424C232.974 23.6584 226.702 29.1624 226.19 36.4584C225.806 43.8824 231.438 50.1544 238.734 50.6664Z" fill="#40C1AC"/>
<path d="M238.725 134.252C249.221 134.892 258.181 126.828 258.693 116.332C259.333 105.836 251.269 96.8757 240.773 96.3637C230.277 95.7237 221.317 103.788 220.805 114.284C220.293 124.78 228.229 133.74 238.725 134.252Z" fill="#40C1AC"/>
<path d="M135.785 328.276C145.129 323.54 148.969 312.148 144.233 302.804C139.497 293.46 128.105 289.62 118.761 294.356C109.417 299.092 105.577 310.484 110.313 319.828C115.049 329.172 126.441 333.012 135.785 328.276Z" fill="#40C1AC"/>
<path d="M250.895 162.014C241.167 176.99 245.263 196.958 260.239 206.686C275.215 216.414 295.183 212.318 304.911 197.342C314.639 182.366 310.543 162.398 295.567 152.67C290.319 149.214 284.175 147.422 277.903 147.422C267.023 147.422 256.911 152.926 250.895 162.014Z" fill="#40C1AC"/>
<path d="M307.073 297.197C299.009 281.197 279.553 274.797 263.681 282.861C247.681 290.925 241.281 310.381 249.345 326.253C257.409 342.253 276.865 348.653 292.737 340.589C308.609 332.653 315.137 313.453 307.201 297.453C307.201 297.325 307.201 297.325 307.073 297.197Z" fill="#40C1AC"/>
<path d="M363.579 294.917C354.747 289.157 342.971 291.589 337.339 300.421C331.579 309.253 334.011 321.029 342.843 326.661C351.675 332.421 363.451 329.989 369.083 321.157C374.843 312.453 372.411 300.677 363.579 294.917Z" fill="#40C1AC"/>
<path d="M425.564 246.387C426.076 237.427 419.292 229.875 410.332 229.363C401.372 228.851 393.82 235.635 393.308 244.595C392.796 253.555 399.58 261.107 408.54 261.619C417.372 262.131 425.052 255.219 425.564 246.387Z" fill="#40C1AC"/>
<path d="M470.159 234.867C464.399 234.483 459.407 238.963 459.151 244.723C458.895 250.483 463.247 255.475 469.007 255.731C474.767 256.115 479.631 251.635 480.015 245.875C480.271 240.115 475.919 235.251 470.159 234.867Z" fill="#40C1AC"/>
<path d="M427.926 338.537C421.782 334.569 413.59 336.233 409.494 342.377C405.526 348.521 407.19 356.713 413.334 360.809C419.478 364.777 427.67 363.113 431.766 356.969C435.862 350.825 434.07 342.505 427.926 338.537Z" fill="#40C1AC"/>
<path d="M131.267 436.08C126.403 432.88 120.003 434.288 116.803 439.024C113.603 443.888 115.011 450.288 119.747 453.488C124.611 456.688 131.011 455.28 134.211 450.544C137.539 445.808 136.131 439.28 131.267 436.08Z" fill="#40C1AC"/>
<path d="M350.476 435.042C345.356 437.602 343.308 444.002 345.868 449.122C348.428 454.242 354.828 456.29 359.948 453.73C365.068 451.17 367.116 444.898 364.556 439.778C361.996 434.53 355.724 432.354 350.476 435.042Z" fill="#40C1AC"/>
<path d="M229.158 329.563C238.886 314.587 234.79 294.619 219.814 284.763C204.838 275.035 184.87 279.131 175.014 294.107C165.158 309.083 169.382 329.051 184.358 338.907C189.606 342.363 195.75 344.155 202.022 344.155C213.03 344.283 223.142 338.779 229.158 329.563Z" fill="#40C1AC"/>
<path d="M164.491 379.103C157.067 374.239 146.955 376.287 142.091 383.711C137.227 391.135 139.275 401.247 146.699 406.111C154.123 410.975 164.235 408.927 169.099 401.503C174.091 394.079 172.043 383.967 164.491 379.103Z" fill="#40C1AC"/>
<path d="M239.815 440.937C232.519 440.553 226.247 446.185 225.735 453.481C225.223 460.777 230.983 467.049 238.279 467.561C245.575 467.945 251.847 462.441 252.359 455.145C252.743 447.721 247.111 441.449 239.815 440.937Z" fill="#40C1AC"/>
<path d="M239.847 357.34C229.351 356.7 220.391 364.764 219.879 375.26C219.239 385.756 227.303 394.716 237.799 395.228C248.295 395.74 257.255 387.804 257.767 377.308C258.407 366.94 250.343 357.852 239.847 357.34Z" fill="#40C1AC"/>
<path d="M317.732 377.814C309.796 381.91 306.596 391.638 310.692 399.574C314.788 407.51 324.516 410.71 332.452 406.614C340.388 402.646 343.588 392.918 339.62 384.982C335.524 377.046 325.796 373.718 317.732 377.814Z" fill="#40C1AC"/>
</g>
<defs>
<clipPath id="clip0_3_12542">
<rect width="480" height="443.52" fill="white" transform="translate(0 24.0234)"/>
</clipPath>
</defs>
</svg>
