<svg width="400" height="400" viewBox="0 0 400 400" fill="none" xmlns="http://www.w3.org/2000/svg">
<path d="M346.837 168.849C341.212 142.432 328.565 118.022 310.227 98.1922C291.889 78.3626 268.541 63.848 242.643 56.1787C216.746 48.5094 189.259 47.9695 163.081 54.616C136.902 61.2624 113.002 74.8489 93.8997 93.9431C87.085 100.758 80.9337 108.205 75.5287 116.184C73.9409 118.307 72.5107 120.543 71.2496 122.875C60.7408 140.464 53.9438 160.018 51.277 180.333C48.6102 200.649 50.1302 221.295 55.7432 241C61.3563 260.706 70.9437 279.054 83.915 294.914C96.8863 310.775 112.967 323.813 131.167 333.224C149.367 342.636 169.301 348.223 189.741 349.64C210.181 351.058 230.695 348.276 250.02 341.467C269.345 334.657 287.071 323.964 302.108 310.046C317.144 296.127 329.172 279.278 337.452 260.536C338.351 258.677 339.142 256.767 339.821 254.817C346.634 237.367 350.117 218.794 350.089 200.062C350.092 189.706 349.033 179.378 346.93 169.239C346.902 169.109 346.879 168.979 346.837 168.849ZM294.8 100.229C295.664 101.047 296.519 101.883 297.365 102.729C310.432 115.754 320.742 131.277 327.681 148.373C327.837 148.758 327.887 149.178 327.826 149.589C327.764 150 327.594 150.387 327.332 150.71C327.07 151.033 326.726 151.279 326.336 151.424C325.947 151.569 325.525 151.606 325.116 151.532C320.715 150.795 316.252 150.484 311.791 150.603C310.142 150.637 308.534 150.083 307.257 149.039C305.98 147.995 305.116 146.53 304.822 144.907C302.146 129.9 298.275 116.04 293.304 103.942C293.021 103.254 292.737 102.571 292.444 101.897C292.307 101.587 292.282 101.238 292.373 100.911C292.463 100.583 292.664 100.298 292.941 100.101C293.218 99.9051 293.555 99.8106 293.893 99.834C294.232 99.8573 294.552 99.997 294.8 100.229ZM309.073 188.27C309.065 187.928 309.166 187.592 309.363 187.312C309.56 187.032 309.841 186.823 310.165 186.715C310.49 186.607 310.841 186.605 311.166 186.711C311.491 186.817 311.774 187.025 311.972 187.303C313.097 188.883 314.181 190.469 315.225 192.061C316.606 194.18 317.891 196.286 319.081 198.38C319.442 199.017 319.591 199.753 319.507 200.481C319.424 201.209 319.112 201.892 318.616 202.431C317.009 204.197 315.26 206.024 313.371 207.914C312.678 208.606 311.977 209.307 311.257 209.99C311.056 210.17 310.808 210.287 310.543 210.329C310.277 210.37 310.005 210.334 309.76 210.224C309.514 210.115 309.306 209.937 309.159 209.711C309.012 209.486 308.934 209.223 308.934 208.954C309.023 206.696 309.089 204.429 309.129 202.152C309.203 197.488 309.18 192.86 309.059 188.27H309.073ZM120.104 87.9495C143.403 71.2611 171.359 62.3215 200.018 62.3956C207.609 62.3946 215.188 63.0162 222.678 64.254C223.12 64.3276 223.533 64.528 223.864 64.8309C224.195 65.1338 224.432 65.5262 224.545 65.9608C224.658 66.3953 224.643 66.8533 224.501 67.2793C224.359 67.7053 224.097 68.0811 223.746 68.3612C216.559 73.997 209.877 82.3369 203.967 93.1532C203.269 94.4327 202.157 95.4373 200.813 96.0028C199.47 96.5682 197.974 96.6611 196.571 96.2661C176.987 90.7511 157.715 88.1586 139.911 88.7812C133.662 88.9821 127.436 89.6421 121.284 90.7558C120.937 90.8123 120.581 90.7505 120.274 90.5803C119.967 90.4101 119.725 90.1413 119.589 89.8174C119.453 89.4934 119.429 89.133 119.523 88.7942C119.616 88.4554 119.821 88.1579 120.104 87.9495ZM100.451 293.561C97.5609 288.102 101.301 275.441 120.299 256.234C120.768 255.761 121.131 255.195 121.366 254.572C121.601 253.949 121.702 253.284 121.662 252.62C121.622 251.955 121.442 251.307 121.135 250.717C120.827 250.126 120.398 249.608 119.876 249.195C119.114 248.595 118.362 247.991 117.609 247.387C116.697 246.648 115.544 246.273 114.372 246.334C113.2 246.395 112.093 246.888 111.262 247.717L110.519 248.465C101.022 258.222 94.3782 267.236 90.652 275.353C90.4073 275.872 90.0294 276.318 89.5568 276.644C89.0841 276.97 88.5336 277.165 87.961 277.209C87.3885 277.254 86.8145 277.146 86.2972 276.896C85.78 276.647 85.338 276.265 85.0162 275.789C70.1663 253.329 62.2832 226.982 62.3568 200.057C62.3527 190.403 63.3555 180.775 65.349 171.33C65.4081 171.022 65.5692 170.743 65.8063 170.538C66.0434 170.333 66.3426 170.214 66.6556 170.2C66.9687 170.186 67.2773 170.278 67.5317 170.461C67.7861 170.644 67.9714 170.908 68.0577 171.209C70.9104 180.641 75.5612 190.393 81.9962 200.252C90.6427 213.531 102.044 226.294 115.555 238.002C120.169 241.998 125.043 245.863 130.121 249.618C140.704 257.37 151.867 264.296 163.513 270.335C168.791 273.076 173.93 275.692 179.194 278.061C180.642 278.718 182.207 279.078 183.796 279.121C185.386 279.164 186.968 278.889 188.449 278.312C190.927 277.337 193.427 276.325 195.948 275.278C197.27 274.722 198.349 273.71 198.99 272.426C199.63 271.143 199.789 269.672 199.437 268.281L199.238 267.464C195.093 250.022 192.789 230.382 192.515 209.818C192.515 209.572 192.515 209.321 192.515 209.075C192.515 207.951 192.515 206.822 192.487 205.697C192.487 205.34 192.487 204.736 192.487 204.373C192.487 204.234 192.487 204.09 192.487 203.95C192.487 202.663 192.487 201.381 192.529 200.089C192.589 196.558 192.719 193.055 192.9 189.584C194.183 164.769 198.387 141.445 205.087 121.829C205.384 120.958 205.323 120.005 204.917 119.179C204.511 118.353 203.793 117.722 202.922 117.425C201.15 116.805 199.382 116.226 197.616 115.687C196.757 115.418 195.827 115.496 195.024 115.903C194.221 116.31 193.609 117.014 193.318 117.866C186.061 139.169 181.587 164.444 180.388 191.187C180.316 192.858 179.828 194.484 178.969 195.918C178.11 197.353 176.907 198.55 175.468 199.402C159.629 208.792 145.082 218.744 132.514 228.775C131.242 229.785 129.658 230.319 128.034 230.285C126.41 230.251 124.85 229.651 123.621 228.589C111.025 217.671 100.423 205.823 92.4083 193.501C76.6624 169.313 72.8943 146.533 81.8754 129.384L81.9451 129.263C83.0849 127.368 84.2728 125.498 85.5087 123.655C95.7999 110.033 114.956 102.139 140.333 101.247C141.941 101.191 143.561 101.163 145.193 101.163C160.777 101.163 177.498 103.733 194.508 108.639L195.628 108.969L196.487 109.22C200.418 110.397 204.358 111.695 208.307 113.113L208.586 113.215C209.611 113.587 210.638 113.966 211.666 114.354L212.633 114.721L213.562 115.078C222.027 118.358 230.305 122.1 238.358 126.29C253.691 134.198 268.116 143.754 281.377 154.789C257.264 160.314 229.233 170.972 201.054 185.342C200.414 185.667 199.87 186.155 199.477 186.755C199.084 187.356 198.856 188.05 198.815 188.767C198.717 190.514 198.587 194.026 198.494 196.819C198.481 197.218 198.572 197.614 198.76 197.967C198.947 198.32 199.224 198.618 199.563 198.83C199.902 199.042 200.291 199.162 200.69 199.176C201.09 199.191 201.486 199.101 201.839 198.914C229.716 184.265 257.593 173.314 281.503 167.524C283.658 167.001 285.541 165.694 286.786 163.859C288.031 162.024 288.549 159.791 288.24 157.596C287.797 154.411 287.303 151.28 286.757 148.201C286.088 144.326 283.982 140.846 280.861 138.453C269.294 129.673 256.996 121.901 244.101 115.222C235.341 110.665 226.329 106.612 217.107 103.082C216.651 102.908 216.239 102.638 215.897 102.29C215.555 101.943 215.292 101.525 215.125 101.067C214.958 100.609 214.892 100.12 214.931 99.6341C214.97 99.148 215.113 98.676 215.351 98.25C224.675 81.561 235.794 72.2315 246.582 72.2315H246.917C259.67 72.4592 272.382 85.7333 281.8 108.657C286.562 120.273 290.256 133.64 292.779 148.182C292.768 148.169 292.755 148.156 292.742 148.145C293.82 154.353 294.684 160.764 295.33 167.343L295.158 167.445L295.39 167.678C296.475 179.058 296.911 190.49 296.696 201.92C296.561 209.354 296.166 216.658 295.529 223.817C278.469 237.603 257.38 251.323 234.2 263.607C226.58 267.645 218.961 271.403 211.434 274.865L211.085 275.023L209.352 275.817C203.105 278.642 196.928 281.252 190.823 283.646L189.792 284.041L188.51 284.538C187.487 284.932 186.47 285.317 185.457 285.695L184.616 286.011C183.385 286.476 182.158 286.912 180.936 287.349C180.788 287.405 180.634 287.465 180.472 287.516C167.425 292.163 154.997 295.67 143.669 297.854C116.276 303.141 103.378 299.099 100.451 293.561ZM138.173 240.13C150.304 230.252 164.517 220.398 180.105 211.068C180.439 231.01 182.628 250.152 186.498 267.445C180.715 264.967 174.961 262.251 169.237 259.296C158.419 253.69 148.036 247.284 138.173 240.13ZM217.776 336.58C211.887 337.335 205.955 337.713 200.018 337.714C173.662 337.787 147.847 330.24 125.679 315.983C125.353 315.768 125.104 315.454 124.966 315.088C124.828 314.722 124.809 314.322 124.912 313.945C125.015 313.567 125.235 313.232 125.539 312.987C125.844 312.741 126.218 312.598 126.609 312.578C126.98 312.578 127.329 312.545 127.635 312.522C133.793 312.085 139.918 311.265 145.974 310.069C160.084 307.351 175.77 302.695 192.194 296.423C192.903 296.157 193.689 296.177 194.383 296.481C195.077 296.785 195.625 297.347 195.911 298.049V298.077C202.276 313.572 210.11 325.285 218.905 332.733C219.227 333.008 219.462 333.371 219.583 333.777C219.703 334.183 219.704 334.615 219.585 335.022C219.466 335.428 219.231 335.791 218.91 336.068C218.589 336.344 218.195 336.522 217.776 336.58ZM275.969 299.824C266.142 319.152 254.039 330.001 242.308 329.783C229.559 329.555 216.842 316.281 207.429 293.357C207.143 292.656 207.143 291.871 207.428 291.17C207.714 290.469 208.263 289.908 208.957 289.607L209.259 289.477C209.878 289.208 210.57 289.161 211.22 289.342C228.829 294.286 246.182 296.864 262.444 296.864C264.21 296.864 265.963 296.835 267.704 296.776C269.739 296.702 271.741 296.587 273.711 296.432C274.123 296.406 274.535 296.488 274.906 296.671C275.276 296.854 275.591 297.132 275.82 297.476C276.049 297.819 276.184 298.218 276.21 298.63C276.236 299.042 276.153 299.454 275.969 299.824ZM280.206 283.2C275.914 283.814 271.591 284.194 267.257 284.338C255.634 284.661 244.01 283.726 232.588 281.551C232.268 281.492 231.974 281.335 231.749 281.1C231.523 280.866 231.377 280.567 231.33 280.245C231.284 279.923 231.34 279.594 231.491 279.306C231.642 279.017 231.879 278.784 232.17 278.638C234.784 277.318 237.398 275.964 240.012 274.577C257.521 265.359 274.363 254.926 290.414 243.355C290.664 243.174 290.962 243.072 291.27 243.061C291.578 243.05 291.882 243.132 292.144 243.295C292.406 243.458 292.613 243.695 292.739 243.976C292.866 244.257 292.905 244.57 292.853 244.874C290.942 256.713 288.08 268.378 284.295 279.757C283.998 280.653 283.458 281.448 282.737 282.056C282.015 282.663 281.139 283.059 280.206 283.2ZM300.524 294.119C299.488 295.224 298.429 296.321 297.351 297.371C295.492 299.248 293.573 301.062 291.594 302.812C291.331 303.044 290.996 303.18 290.645 303.195C290.294 303.211 289.948 303.105 289.666 302.896C289.383 302.687 289.181 302.387 289.093 302.047C289.005 301.707 289.037 301.347 289.183 301.027C289.384 300.6 289.584 300.168 289.782 299.731C290.603 297.913 291.401 296.055 292.175 294.156C292.266 293.934 292.408 293.737 292.588 293.58C292.769 293.423 292.984 293.31 293.216 293.25C295.167 292.751 297.069 292.204 298.921 291.61C299.247 291.495 299.601 291.493 299.927 291.606C300.254 291.718 300.532 291.937 300.718 292.228C300.904 292.519 300.986 292.864 300.951 293.207C300.915 293.55 300.765 293.872 300.524 294.119ZM328.187 250.445C327.528 252.13 326.834 253.801 326.106 255.458C325.994 255.685 325.888 255.922 325.767 256.141C321.227 264.88 313.612 271.757 303.437 276.547C302.927 276.789 302.358 276.88 301.798 276.808C301.238 276.736 300.711 276.504 300.278 276.141C299.846 275.778 299.527 275.298 299.36 274.759C299.193 274.219 299.184 273.643 299.335 273.099C302.848 260.323 305.386 247.298 306.926 234.137C307.241 231.571 308.5 229.214 310.458 227.525C314.639 223.906 318.551 220.291 322.147 216.699L322.185 216.658C322.59 216.254 323.094 215.962 323.646 215.81C324.198 215.659 324.78 215.653 325.335 215.793C325.89 215.934 326.399 216.215 326.812 216.611C327.226 217.007 327.53 217.503 327.695 218.051C331.245 229.862 331.444 240.86 328.187 250.449V250.445ZM330.943 185.956C330.709 186.38 330.37 186.736 329.957 186.989C329.544 187.242 329.073 187.383 328.589 187.399C328.105 187.414 327.625 187.304 327.197 187.077C326.769 186.851 326.408 186.518 326.148 186.109L325.613 185.277C321.362 178.785 316.654 172.602 311.526 166.776C311.238 166.444 311.052 166.037 310.989 165.602C310.927 165.167 310.991 164.723 311.173 164.323C311.356 163.924 311.65 163.585 312.02 163.348C312.39 163.111 312.82 162.985 313.259 162.985H313.306C325.637 162.985 332.099 166.028 334.074 169.75C335.686 172.858 335.194 178.299 330.943 185.96V185.956ZM337.605 204.15C337.6 204.347 337.527 204.537 337.4 204.687C337.272 204.837 337.097 204.939 336.903 204.976C336.709 205.013 336.509 204.982 336.335 204.89C336.161 204.797 336.024 204.647 335.946 204.466L335.482 203.356C335.334 203.022 335.278 202.655 335.319 202.293C335.36 201.93 335.496 201.585 335.714 201.293L336.216 200.633C336.82 199.848 337.689 199.964 337.689 200.837C337.67 201.985 337.642 202.979 337.605 204.155V204.15Z" fill="#40C1AC"/>
</svg>
