<svg width="367" height="100" viewBox="0 0 367 100" fill="none" xmlns="http://www.w3.org/2000/svg">
<g clip-path="url(#clip0_51_333)">
<path d="M97.3538 40.115V66.7816H87.4688V1.2644H98.7331C104.25 1.2644 108.388 1.60923 111.147 2.41383C114.02 3.21843 116.434 4.59774 118.618 6.78165C122.411 10.4598 124.25 15.0575 124.25 20.6897C124.25 26.6667 122.296 31.4943 118.273 34.9426C114.25 38.5058 108.848 40.2299 101.952 40.2299L97.3538 40.115ZM97.3538 31.0345H101.147C110.227 31.0345 114.825 27.5862 114.825 20.5747C114.825 13.7931 110.112 10.4598 100.802 10.4598H97.5837V31.0345H97.3538Z" fill="#034638"/>
<path d="M134.357 33.6782C134.357 24.4828 137.691 16.5517 144.472 9.88506C151.254 3.21839 159.3 0 168.725 0C178.036 0 186.082 3.33333 192.748 10C199.415 16.6667 202.863 24.7126 202.863 34.1379C202.863 43.5632 199.53 51.6092 192.748 58.1609C185.967 64.7126 177.806 68.046 168.265 68.046C159.76 68.046 152.174 65.0575 145.507 59.1954C138.036 52.7586 134.357 44.2529 134.357 33.6782ZM144.357 33.908C144.357 41.1494 146.771 47.1264 151.714 51.8391C156.541 56.5517 162.174 58.8506 168.495 58.8506C175.392 58.8506 181.139 56.4368 185.967 51.7241C190.679 46.8966 193.093 41.0345 193.093 34.1379C193.093 27.1264 190.794 21.2644 186.082 16.5517C181.484 11.8391 175.737 9.42529 168.84 9.42529C162.059 9.42529 156.196 11.8391 151.599 16.5517C146.656 21.1494 144.357 26.8966 144.357 33.908Z" fill="#034638"/>
<path d="M226.323 1.2644V57.5862H245.633V66.8966H216.438V1.2644H226.323Z" fill="#034638"/>
<path d="M269.194 1.2644V57.5862H288.504V66.8966H259.309V1.2644H269.194Z" fill="#034638"/>
<path d="M291.828 33.6782C291.828 24.4828 295.161 16.5517 301.943 9.88506C308.725 3.21839 316.771 0 326.196 0C335.506 0 343.552 3.33333 350.219 10C356.886 16.6667 360.334 24.7126 360.334 34.1379C360.334 43.5632 357.001 51.6092 350.219 58.1609C343.437 64.7126 335.276 68.046 325.736 68.046C317.23 68.046 309.644 65.0575 302.978 59.1954C295.506 52.7586 291.828 44.2529 291.828 33.6782ZM301.828 33.908C301.828 41.1494 304.242 47.1264 309.184 51.8391C314.012 56.5517 319.644 58.8506 325.966 58.8506C332.863 58.8506 338.61 56.4368 343.437 51.7241C348.15 46.8966 350.564 41.0345 350.564 34.1379C350.564 27.1264 348.265 21.2644 343.552 16.5517C338.955 11.8391 333.207 9.42529 326.311 9.42529C319.529 9.42529 313.667 11.8391 309.07 16.5517C304.127 21.1494 301.828 26.8966 301.828 33.908Z" fill="#034638"/>
<path d="M11.5994 66.7816H-0.00976562L34.473 1.2644H42.1741L75.8523 66.7816H64.473L38.0362 17.4713L11.5994 66.7816Z" fill="#034638"/>
<path d="M22.0674 66.8966L53.4467 66.7816L37.8145 95.2874L22.0674 66.8966Z" fill="#034638"/>
<path d="M37.9189 41.839C40.9025 41.839 43.3212 39.4203 43.3212 36.4367C43.3212 33.4531 40.9025 31.0344 37.9189 31.0344C34.9353 31.0344 32.5166 33.4531 32.5166 36.4367C32.5166 39.4203 34.9353 41.839 37.9189 41.839Z" fill="#034638"/>
<path d="M268.383 81.6092C267.349 80.4598 266.314 79.6552 265.165 79.1954C264.015 78.6207 262.751 78.3908 261.372 78.3908C260.222 78.3908 259.188 78.6207 258.038 79.0805C257.004 79.5403 256.084 80.2299 255.28 81.0345C254.475 81.8391 253.901 82.8736 253.441 83.9081C252.981 84.9426 252.866 86.092 252.866 87.3564C252.866 88.3908 252.981 89.3104 253.211 90.115C253.441 90.9196 253.786 91.7242 254.36 92.4138C255.165 93.6782 256.314 94.5977 257.464 95.1725C258.728 95.8621 260.107 96.2069 261.487 96.2069C262.866 96.2069 264.13 95.9771 265.28 95.4023C266.429 94.8276 267.464 94.023 268.498 92.8736V96.2069C267.464 97.0115 266.314 97.5862 265.05 97.9311C263.786 98.2759 262.521 98.5058 261.257 98.5058C260.107 98.5058 259.073 98.3908 257.924 98.046C256.889 97.7012 255.855 97.2414 254.935 96.5518C253.326 95.5173 252.176 94.138 251.372 92.5288C250.567 90.9196 250.107 89.1954 250.107 87.3564C250.107 85.7472 250.337 84.2529 250.912 82.8736C251.487 81.4943 252.291 80.3449 253.441 79.1954C254.475 78.161 255.74 77.3564 257.004 76.7817C258.383 76.2069 259.763 75.9771 261.372 75.9771C262.636 75.9771 263.786 76.2069 264.935 76.5518C266.084 76.8966 267.234 77.4713 268.383 78.2759V81.6092Z" fill="#034638"/>
<path d="M272.757 97.8161V76.4368H277.814C279.194 76.4368 280.343 76.5517 280.918 76.6666C281.607 76.7816 282.182 77.1264 282.642 77.4713C283.332 77.931 283.791 78.6207 284.136 79.4253C284.481 80.2299 284.711 81.1494 284.711 82.1839C284.711 83.908 284.251 85.2873 283.217 86.2069C282.182 87.1264 280.803 87.5862 278.964 87.5862H278.504L286.665 97.8161H283.446L275.63 87.5862H275.286V97.8161H272.757ZM275.171 78.6207V85.7471H277.125C279.079 85.7471 280.458 85.5172 281.148 84.9425C281.837 84.4827 282.182 83.5632 282.182 82.2988C282.182 80.9195 281.837 80 281.148 79.4253C280.458 78.8506 279.194 78.6207 277.24 78.6207H275.171Z" fill="#034638"/>
<path d="M292.867 97.8161V88.046L285.626 76.4368H288.614L294.247 85.7471L299.764 76.4368H302.637L295.396 88.046V97.8161H292.867Z" fill="#034638"/>
<path d="M307.694 88.2759V97.8161H305.165V76.4368H309.648C311.257 76.4368 312.406 76.5517 313.096 76.6666C313.786 76.7816 314.475 77.1264 315.05 77.4713C315.74 77.931 316.314 78.6207 316.659 79.4253C317.004 80.2299 317.234 81.2644 317.234 82.2988C317.234 83.3333 317.004 84.2529 316.659 85.1724C316.314 85.977 315.74 86.6667 315.05 87.1264C314.475 87.4713 313.901 87.8161 313.096 87.931C312.406 88.046 311.257 88.1609 309.648 88.1609H308.958H307.694V88.2759ZM307.694 85.977H308.958C311.142 85.977 312.636 85.7471 313.326 85.1724C314.131 84.7126 314.475 83.7931 314.475 82.5287C314.475 81.1494 314.131 80.2299 313.326 79.6552C312.521 79.0804 311.142 78.8506 308.958 78.8506H307.694V85.977Z" fill="#034638"/>
<path d="M324.133 97.8161V78.9655H318.041V76.5518H332.639V78.9655H326.662V97.9311H324.133V97.8161Z" fill="#034638"/>
<path d="M355.85 87.2415C355.85 88.7357 355.62 90.23 355.045 91.6093C354.47 92.9886 353.666 94.138 352.631 95.1725C351.597 96.207 350.333 97.0116 348.953 97.5863C347.574 98.161 346.08 98.3909 344.585 98.3909C343.091 98.3909 341.597 98.161 340.218 97.5863C338.838 97.0116 337.574 96.207 336.539 95.1725C335.505 94.138 334.585 92.8736 334.011 91.6093C333.436 90.23 333.206 88.8507 333.206 87.3564C333.206 85.8622 333.436 84.3679 334.011 82.9886C334.585 81.6093 335.39 80.4599 336.539 79.3104C337.574 78.276 338.838 77.4714 340.218 76.8966C341.597 76.3219 343.091 76.092 344.585 76.092C346.08 76.092 347.574 76.3219 348.953 76.8966C350.333 77.4714 351.597 78.276 352.631 79.3104C353.666 80.3449 354.585 81.6093 355.045 82.8737C355.505 84.253 355.85 85.6323 355.85 87.2415ZM344.355 95.9771C345.505 95.9771 346.654 95.7472 347.689 95.2874C348.723 94.8277 349.643 94.253 350.562 93.3334C351.367 92.5288 352.057 91.4943 352.516 90.4599C352.976 89.4254 353.206 88.276 353.206 87.1265C353.206 85.9771 352.976 84.8277 352.516 83.6783C352.057 82.5288 351.482 81.6093 350.562 80.8047C349.758 80.0001 348.723 79.3104 347.689 78.8507C346.654 78.3909 345.505 78.161 344.355 78.161C343.206 78.161 342.057 78.3909 341.022 78.8507C339.988 79.3104 339.068 79.8852 338.149 80.8047C337.344 81.6093 336.654 82.6438 336.195 83.6783C335.735 84.7127 335.505 85.8622 335.505 87.1265C335.505 88.276 335.735 89.4254 336.195 90.4599C336.654 91.4943 337.229 92.4139 338.149 93.3334C338.953 94.138 339.988 94.8277 341.022 95.2874C342.057 95.8622 343.206 95.9771 344.355 95.9771Z" fill="#034638"/>
</g>
<defs>
<clipPath id="clip0_51_333">
<rect width="366.092" height="100" fill="white"/>
</clipPath>
</defs>
</svg>
