<svg width="438" height="70" viewBox="0 0 438 70" fill="none" xmlns="http://www.w3.org/2000/svg">
<g clip-path="url(#clip0_51_318)">
<path d="M76.945 30.1758L61.7218 3.8687C61.0405 2.69023 60.0601 1.71203 58.8795 1.0328C57.6988 0.353571 56.3597 -0.0026704 54.9972 1.50713e-05H24.5817C22.8952 0.00452928 21.2395 0.45058 19.7795 1.29368C18.3195 2.13677 17.1064 3.34744 16.2612 4.80492L1.03793 31.112C0.357969 32.2882 0 33.6225 0 34.9807C0 36.3389 0.357969 37.6731 1.03793 38.8494L16.2612 65.1951C17.1071 66.6537 18.3214 67.8651 19.7829 68.7083C21.2443 69.5514 22.9017 69.9969 24.5894 70H54.9972C56.3544 69.9973 57.6872 69.6385 58.8619 68.9595C60.0366 68.2805 61.0121 67.3053 61.6908 66.1313L76.914 39.8243C77.7689 38.361 78.222 36.6983 78.2274 35.0042C78.2329 33.31 77.7905 31.6445 76.945 30.1758ZM5.36087 35.089L7.08075 32.1411L20.6771 8.58076L29.199 23.3437C29.5966 23.9646 30.2187 24.4084 30.9358 24.5828C31.6528 24.7571 32.4096 24.6485 33.0485 24.2796C33.6874 23.9107 34.1592 23.3099 34.3657 22.6023C34.5723 21.8947 34.4976 21.1348 34.1572 20.4808L27.2932 8.58076C26.7241 7.73839 25.965 7.0412 25.0769 6.54531C24.1888 6.04942 23.1966 5.76867 22.18 5.72567H52.8745L38.4414 30.6942C38.1864 31.1337 37.8204 31.4986 37.3799 31.7525C36.9394 32.0064 36.4399 32.1404 35.9313 32.1411H10.5437C9.49665 32.1342 8.46624 32.4031 7.55633 32.9206C6.64642 33.4382 5.88917 34.1861 5.36087 35.089ZM52.8745 64.2821H25.643L34.165 49.5037C34.3736 49.1779 34.514 48.8132 34.5776 48.4317C34.6413 48.0503 34.6269 47.6598 34.5353 47.2841C34.4437 46.9083 34.2768 46.5549 34.0447 46.2453C33.8126 45.9358 33.5201 45.6763 33.1848 45.4828C32.8496 45.2892 32.4785 45.1655 32.0941 45.1191C31.7096 45.0727 31.3198 45.1045 30.948 45.2128C30.5762 45.321 30.2302 45.5034 29.931 45.7488C29.6317 45.9943 29.3853 46.2977 29.2068 46.6409L20.6848 61.4193L18.9882 64.3749C19.4568 63.5567 19.7243 62.6391 19.7687 61.6976C19.8132 60.756 19.6333 59.8174 19.2439 58.9588L7.06525 37.859H35.9313C36.4398 37.8604 36.939 37.9947 37.3793 38.2485C37.8197 38.5024 38.1858 38.8669 38.4414 39.3059L51.263 61.4812C51.829 62.3117 52.5823 62.9978 53.4623 63.4843C54.3424 63.9709 55.3246 64.2441 56.3297 64.2821H52.8745ZM71.4522 37.8667L57.8404 61.4193L43.3764 36.4508C43.1236 36.0104 42.9906 35.5115 42.9906 35.0039C42.9906 34.4962 43.1236 33.9974 43.3764 33.557L57.8404 8.58076L59.537 5.63282C58.9695 6.62604 58.6985 7.7608 58.7561 8.90295C58.8138 10.0451 59.1977 11.1469 59.8624 12.0781C60.3505 12.7589 71.4832 32.1333 71.4832 32.1333H54.3542C53.5939 32.1333 52.8648 32.4349 52.3273 32.9718C51.7897 33.5087 51.4877 34.2369 51.4877 34.9961C51.4877 35.7554 51.7897 36.4836 52.3273 37.0205C52.8648 37.5574 53.5939 37.859 54.3542 37.859H68.0667H67.9892C69.0363 37.8658 70.0667 37.597 70.9767 37.0794C71.8866 36.5619 72.6438 35.814 73.1721 34.911L71.4445 37.8744L71.4522 37.8667Z" fill="#034638"/>
<path d="M242.891 19.4764C241.123 19.4384 239.379 19.8939 237.856 20.7917C236.386 21.6975 235.071 22.831 233.959 24.1497L233.804 24.3354H232.897L231.952 20.1727H222.098C221.733 20.1728 221.376 20.2838 221.076 20.4912C220.776 20.6985 220.546 20.9922 220.417 21.3333L218.635 26.0763H230.039C230.039 26.0763 226.467 26.0763 226.467 28.9701V44.7853H222.09C221.725 44.7853 221.368 44.8964 221.068 45.1038C220.768 45.3111 220.538 45.6048 220.409 45.9459L218.627 50.6889H243.891C244.258 50.6899 244.617 50.5784 244.919 50.3695C245.221 50.1606 245.451 49.8643 245.579 49.5206L247.361 44.7776H233.649V30.6646L233.734 30.5331C234.482 29.3909 235.402 28.3705 236.461 27.5078C237.724 26.5475 239.284 26.0601 240.869 26.1305C241.371 26.0981 241.873 26.2001 242.322 26.4258C242.772 26.6516 243.153 26.993 243.426 27.4149C243.937 28.3649 244.191 29.4318 244.162 30.5099H250.522C250.468 26.587 249.747 23.7474 248.454 22.0684C247.805 21.2202 246.96 20.5414 245.991 20.09C245.023 19.6387 243.959 19.4281 242.891 19.4764Z" fill="#034638"/>
<path d="M281.606 34.8175C280.037 34.0675 278.397 33.4765 276.71 33.0534L271.713 31.7612C270.388 31.4239 269.093 30.9815 267.839 30.4381C266.607 29.8888 265.98 29.115 265.98 28.1169C265.992 27.538 266.185 26.9774 266.532 26.5139C266.88 26.0503 267.364 25.7072 267.917 25.5326C269.354 24.996 270.884 24.7463 272.418 24.7976C273.441 24.7999 274.462 24.9088 275.462 25.1226C276.455 25.3326 277.431 25.6144 278.383 25.9659C279.297 26.3064 280.188 26.6855 281.017 27.0878C281.668 27.4051 282.264 27.7146 282.791 28.0163L285.743 23.2424C285.226 22.8968 284.661 22.5202 284.046 22.1127C283.143 21.5537 282.182 21.0944 281.18 20.7432C279.877 20.2879 278.54 19.936 277.182 19.6909C275.42 19.3837 273.633 19.2387 271.844 19.2576C270.067 19.2462 268.295 19.4541 266.569 19.8766C265.098 20.2263 263.7 20.8313 262.439 21.6639C261.345 22.398 260.427 23.3651 259.751 24.4958C259.083 25.6737 258.748 27.0111 258.783 28.3645C258.716 29.9243 259.223 31.4545 260.208 32.6665C261.234 33.8409 262.479 34.8052 263.873 35.5061C265.424 36.2912 267.062 36.8911 268.753 37.2934C270.551 37.7345 272.232 38.1678 273.758 38.5933C275.102 38.9493 276.412 39.4258 277.67 40.017C278.191 40.2001 278.644 40.5345 278.973 40.9771C279.301 41.4196 279.49 41.9503 279.514 42.5007C279.539 43.0894 279.385 43.6717 279.072 44.1715C278.76 44.6713 278.304 45.0652 277.763 45.3016C275.78 46.2456 272.883 46.2378 270.117 45.557C268.855 45.2504 267.617 44.8521 266.414 44.3654C265.321 43.9283 264.269 43.3976 263.268 42.7792C262.563 42.3382 261.974 41.9359 261.486 41.5645L258.248 46.6324C260.018 48.0512 261.996 49.189 264.113 50.0059C267.047 51.1069 270.167 51.6323 273.301 51.5534C277.755 51.5534 281.141 50.6636 283.372 48.915C284.452 48.0758 285.313 46.9895 285.883 45.7478C286.454 44.5062 286.716 43.1456 286.649 41.7811C286.712 40.2539 286.207 38.7573 285.232 37.5797C284.22 36.4266 282.987 35.4874 281.606 34.8175Z" fill="#034638"/>
<path d="M321.935 42.3929C321.277 42.9318 320.575 43.4132 319.835 43.8321C319.01 44.2947 318.134 44.6608 317.224 44.923C316.169 45.222 315.075 45.368 313.978 45.3563C312.94 45.4069 311.903 45.2207 310.948 44.8119C309.992 44.403 309.142 43.7821 308.462 42.9964C307.168 41.4489 306.51 38.973 306.51 35.6227V26.0748H320.85L323.05 20.1712H306.518V10.8322L300.645 12.5034C300.27 12.6109 299.94 12.8374 299.706 13.1487C299.471 13.46 299.344 13.8391 299.344 14.2289V20.1944H296.547C296.182 20.1944 295.825 20.3055 295.525 20.5128C295.225 20.7201 294.995 21.0139 294.866 21.355L293.084 26.098H303.194C303.194 26.098 299.32 26.098 299.32 29.1388V35.5917C299.32 41.1549 300.475 45.2557 302.76 47.7704C305.046 50.285 308.478 51.5462 313.025 51.5462C314.328 51.5408 315.627 51.3955 316.899 51.1129C318.199 50.8313 319.469 50.4298 320.695 49.9136C321.876 49.4171 323.011 48.819 324.088 48.1263C324.94 47.589 325.721 46.9469 326.412 46.2152L323.166 41.3484L321.935 42.3929Z" fill="#034638"/>
<path d="M358.985 44.3046C358.944 43.7887 358.882 43.2317 358.799 42.6333C358.711 41.5088 358.667 40.4952 358.667 39.5925C358.667 38.401 358.745 37.0237 358.892 35.4994C359.039 33.9752 359.109 32.1878 359.109 30.0833C359.127 28.5985 358.921 27.1195 358.497 25.6962C358.122 24.4727 357.461 23.356 356.568 22.4388C355.574 21.4694 354.367 20.746 353.043 20.3265C351.289 19.7766 349.458 19.5153 347.62 19.5527C345.016 19.502 342.415 19.7618 339.873 20.3265C338.05 20.7638 336.265 21.346 334.535 22.0674L336.177 27.4835C337.444 26.9462 338.736 26.4736 340.051 26.0676C341.971 25.4843 343.97 25.1999 345.977 25.2242C347.527 25.1243 349.067 25.5259 350.37 26.3693C351.424 27.1431 351.92 28.4584 351.92 30.238V31.4141C351.921 31.8789 351.877 32.3428 351.788 32.7991L351.726 33.2711H351.269C350.045 33.1885 349.012 33.1034 348.17 33.0157C347.349 32.9306 346.566 32.8919 345.846 32.8919C343.932 32.874 342.022 33.0712 340.152 33.48C338.63 33.8038 337.178 34.3988 335.867 35.2364C334.741 35.9732 333.827 36.9924 333.218 38.192C332.577 39.5475 332.264 41.0343 332.304 42.5327C332.249 43.7093 332.453 44.8837 332.901 45.9732C333.349 47.0626 334.031 48.0407 334.899 48.8387C336.634 50.3861 339.028 51.2295 342.026 51.2295C344.116 51.3334 346.194 50.868 348.038 49.8832C349.406 49.0851 350.574 47.9871 351.455 46.6722L351.61 46.4323H352.64L353.469 50.7266H360.527C360.946 50.7266 361.351 50.5805 361.674 50.3135C361.996 50.0465 362.215 49.6754 362.293 49.2642L363.13 44.823H359.063L358.985 44.3046ZM351.873 41.6197L351.811 41.7358C351.231 42.7407 350.438 43.6069 349.487 44.2736C348.05 45.1698 346.367 45.592 344.676 45.4806C342.941 45.4806 341.709 45.117 340.911 44.3587C340.508 43.9534 340.194 43.4691 339.989 42.9363C339.784 42.4036 339.691 41.834 339.718 41.2638C339.7 40.4984 339.934 39.7483 340.384 39.1283C340.828 38.5417 341.404 38.0673 342.065 37.7433C342.779 37.3798 343.54 37.1193 344.327 36.9695C346.054 36.6826 347.815 36.6591 349.549 36.8999C350.401 37.0082 351.029 37.1011 351.463 37.1862L351.881 37.2713V41.612L351.873 41.6197Z" fill="#034638"/>
<path d="M388.018 34.0442L400.313 20.1866H392.016L381.681 32.7288H379.016V7.5437H370.122C369.757 7.54374 369.401 7.65482 369.1 7.86214C368.8 8.06947 368.57 8.36322 368.441 8.70431L366.659 13.4473H375.321C375.321 13.4473 371.842 13.4473 371.842 15.9852V50.6873H379.016V37.6189H381.991L392.837 50.6873H398.849C399.216 50.6882 399.575 50.5768 399.877 50.3679C400.179 50.159 400.409 49.8627 400.538 49.5189L402.32 44.7759H396.711L388.018 34.0442Z" fill="#034638"/>
<path d="M169.892 20.1723C169.511 20.1721 169.14 20.2926 168.833 20.5165C168.525 20.7404 168.296 21.056 168.18 21.418L161.664 39.5389H160.487L151.794 20.1955H145.473C145.108 20.1955 144.751 20.3066 144.451 20.5139C144.151 20.7213 143.921 21.015 143.792 21.3561L142.01 26.0991H150.834C150.834 26.0991 146.619 26.0991 148.223 29.9678L157.14 50.6885H164.608L176.283 20.1646L169.892 20.1723Z" fill="#034638"/>
<path d="M133.053 21.9965C131.692 21.0133 130.153 20.3013 128.521 19.8997C124.769 18.9579 120.826 19.0947 117.148 20.2943C115.218 20.9293 113.44 21.9568 111.927 23.3119C110.419 24.7161 109.237 26.4326 108.464 28.3412C107.565 30.594 107.128 33.004 107.178 35.4286C107.139 37.7403 107.522 40.0398 108.309 42.2143C109.009 44.1326 110.131 45.8696 111.592 47.2971C113.054 48.7246 114.817 49.8063 116.753 50.4623C119.025 51.2304 121.412 51.6046 123.811 51.5688C125.36 51.5688 132.426 51.3057 137.841 47.437L136.842 42.3922C133.092 44.7595 128.751 46.0251 124.315 46.0443C123.074 46.0607 121.836 45.9282 120.627 45.6497C119.507 45.3856 118.444 44.9217 117.489 44.2802C116.562 43.6487 115.793 42.812 115.243 41.8351C114.641 40.7112 114.325 39.4574 114.321 38.1831V37.6492H137.128C137.473 35.8875 137.655 34.0977 137.671 32.3027C137.749 30.122 137.303 27.9542 136.369 25.9813C135.59 24.4128 134.455 23.0482 133.053 21.9965ZM131.101 32.6664H114.468L114.514 32.1093C114.592 31.0186 114.918 29.9601 115.467 29.0143C115.992 28.1088 116.696 27.3192 117.536 26.6931C118.376 26.0717 119.317 25.5981 120.317 25.2927C121.372 24.9734 122.469 24.8143 123.571 24.8207C126.065 24.8207 127.971 25.4938 129.226 26.8169C130.53 28.2816 131.205 30.1986 131.109 32.1557L131.101 32.6664Z" fill="#034638"/>
<path d="M206.619 21.9965C205.258 21.0133 203.719 20.3013 202.087 19.8997C198.335 18.9579 194.392 19.0947 190.714 20.2943C188.784 20.9293 187.006 21.9568 185.493 23.3119C183.972 24.71 182.777 26.4241 181.991 28.3334C181.092 30.5863 180.655 32.9963 180.705 35.4209C180.666 37.7326 181.05 40.032 181.836 42.2065C182.539 44.1281 183.666 45.8671 185.133 47.2949C186.6 48.7226 188.37 49.8025 190.312 50.4546C192.584 51.2226 194.971 51.5969 197.369 51.561C198.919 51.561 205.984 51.298 211.399 47.4293L210.423 42.4C206.673 44.7673 202.332 46.0329 197.896 46.052C196.652 46.0589 195.411 45.916 194.201 45.6265C193.081 45.3624 192.018 44.8985 191.063 44.257C190.129 43.6177 189.357 42.7699 188.809 41.781C188.207 40.657 187.891 39.4032 187.887 38.129V37.5951H210.733C211.078 35.8333 211.26 34.0436 211.276 32.2485C211.345 30.0743 210.894 27.9149 209.958 25.9503C209.169 24.3906 208.026 23.0367 206.619 21.9965ZM204.667 32.6664H188.034L188.08 32.1093C188.158 31.0186 188.484 29.9601 189.033 29.0143C189.559 28.1089 190.262 27.3192 191.102 26.6931C191.942 26.0717 192.883 25.5981 193.883 25.2927C194.938 24.9734 196.035 24.8143 197.137 24.8207C199.631 24.8207 201.537 25.4938 202.792 26.8169C204.096 28.2816 204.772 30.1986 204.675 32.1557L204.667 32.6664Z" fill="#034638"/>
<path d="M432.711 21.9965C431.349 21.0133 429.811 20.3013 428.179 19.8997C424.427 18.9579 420.484 19.0947 416.806 20.2943C414.876 20.9293 413.098 21.9568 411.585 23.3119C410.064 24.71 408.869 26.4241 408.083 28.3334C407.184 30.5863 406.747 32.9963 406.797 35.4209C406.758 37.7326 407.141 40.032 407.928 42.2065C408.631 44.1304 409.758 45.8714 411.227 47.3006C412.695 48.7298 414.467 49.8104 416.411 50.4623C418.683 51.2304 421.07 51.6046 423.469 51.5688C425.018 51.5688 432.084 51.3057 437.499 47.437L436.5 42.3922C432.75 44.7595 428.409 46.0251 423.972 46.0443C422.728 46.0512 421.487 45.9083 420.277 45.6187C419.157 45.3547 418.094 44.8907 417.139 44.2492C416.212 43.6178 415.443 42.7811 414.893 41.8042C414.291 40.6802 413.975 39.4264 413.971 38.1522V37.6183H436.833C437.178 35.8566 437.359 34.0668 437.375 32.2718C437.453 30.091 437.007 27.9233 436.073 25.9503C435.277 24.3882 434.126 23.034 432.711 21.9965ZM430.743 32.6664H414.126L414.172 32.1093C414.25 31.0186 414.576 29.9601 415.125 29.0143C415.65 28.1088 416.354 27.3192 417.194 26.6931C418.034 26.0717 418.975 25.5981 419.975 25.2927C421.03 24.9734 422.126 24.8143 423.229 24.8207C425.723 24.8207 427.629 25.4938 428.884 26.8169C430.187 28.2816 430.863 30.1986 430.767 32.1557L430.743 32.6664Z" fill="#034638"/>
</g>
<defs>
<clipPath id="clip0_51_318">
<rect width="437.5" height="70" fill="white"/>
</clipPath>
</defs>
</svg>
