<svg width="408" height="100" viewBox="0 0 408 100" fill="none" xmlns="http://www.w3.org/2000/svg">
<path fill-rule="evenodd" clip-rule="evenodd" d="M48.6834 71.6116V98.2289C48.6834 99.5922 47.2062 100.443 46.0269 99.7574L1.75976 74.0278C0.670378 73.3943 0 72.2301 0 70.9694V15.9461C0 14.5823 1.47833 13.7316 2.65747 14.417L24.761 27.2647V57.0874L48.6834 71.6116Z" fill="#034638" fill-opacity="0.45"/>
<path fill-rule="evenodd" clip-rule="evenodd" d="M97.3721 73.1364V98.2289C97.3721 99.5922 98.8505 100.443 100.03 99.7574L144.296 74.0278C145.385 73.3943 146.056 72.2301 146.056 70.9694V15.9461C146.056 14.5823 144.578 13.7316 143.398 14.417L123.807 25.8048V57.0874L97.3721 73.1364Z" fill="#034638" fill-opacity="0.45"/>
<path d="M24.7637 1.77119C24.7637 0.413281 26.2306 -0.438117 27.4098 0.23564L73.4069 26.5198C73.9514 26.8305 74.6187 26.8305 75.162 26.5198L121.16 0.23564C122.339 -0.438117 123.806 0.413281 123.806 1.77119V57.0875L75.2021 86.5966C74.6387 86.9396 73.9302 86.9396 73.3668 86.5966L24.7637 57.0875V1.77119Z" fill="url(#paint0_linear_51_354)"/>
<path d="M224.505 23.6748L210.165 59.4097L195.679 23.6748H180.827V75.2947H193.4V44.2657L205.016 75.2947H215.162L226.708 44.3351V75.2947H239.281V23.6748H224.505Z" fill="#034638"/>
<path d="M248.281 23.6748V75.2947H260.853V23.6748H248.281Z" fill="#034638"/>
<path d="M289.025 23.6748H269.681V75.2947H289.025C305.492 75.2947 316.081 64.7802 316.081 49.4845C316.081 34.1885 305.492 23.6748 289.025 23.6748ZM288.213 64.4134H282.259V34.4103H288.213C297.701 34.4103 303.287 39.9964 303.287 49.4845C303.287 58.9728 297.701 64.4134 288.213 64.4134Z" fill="#034638"/>
<path d="M349.026 23.6748H334.472L315.794 75.2947H328.955L332.039 66.1736H351.307L354.398 75.2947H367.704L349.026 23.6748ZM335.352 56.4703L341.673 37.5707L348.07 56.4703H335.352Z" fill="#034638"/>
<path d="M382.242 37.7244C382.242 34.4878 384.522 32.9422 387.537 33.0185C390.919 33.0878 393.269 35.0769 393.49 38.3829H407.095C406.576 28.5275 399.007 22.9414 387.752 22.9414C376.497 22.9414 368.928 28.3819 368.928 38.161C368.783 56.4716 394.593 51.3223 394.593 60.887C394.593 63.9015 392.243 65.738 388.563 65.738C384.882 65.738 382.534 63.8251 382.166 59.8542H368.783C369.15 70.2986 377.828 75.808 388.931 75.808C400.99 75.808 407.754 68.6073 407.754 59.9306C407.754 42.6451 382.242 46.6927 382.242 37.7244Z" fill="#034638"/>
<defs>
<linearGradient id="paint0_linear_51_354" x1="31.8385" y1="67.0987" x2="123.806" y2="-1.87752" gradientUnits="userSpaceOnUse">
<stop offset="0.16" stop-color="#034638"/>
<stop offset="0.56" stop-color="#034638" stop-opacity="0.7"/>
<stop offset="1" stop-color="#034638"/>
</linearGradient>
</defs>
</svg>
