<svg width="319" height="80" viewBox="0 0 319 80" fill="none" xmlns="http://www.w3.org/2000/svg">
<path d="M90.4459 45.9885C90.4459 46.5497 89.9733 47.0223 89.3826 47.0223H69.7998C70.302 51.8663 73.935 56.2968 79.0743 56.2968C82.5892 56.2968 85.1884 54.9677 87.1378 52.1617C87.3446 51.8663 87.6399 51.6596 87.9944 51.6596C88.5556 51.6596 88.9691 52.0731 88.9691 52.6343C88.9691 52.841 88.91 52.9887 88.8214 53.1364C86.8425 56.5626 82.9141 58.2462 79.0743 58.2462C72.4877 58.2462 67.7618 52.3389 67.7618 46.0476C67.7618 39.7268 72.4581 33.849 79.0743 33.849C85.661 33.849 90.4164 39.6972 90.4459 45.9885ZM88.3488 45.0729C87.9353 40.2289 84.2137 35.7984 79.0743 35.7984C73.935 35.7984 70.302 40.2289 69.7998 45.0729H88.3488ZM114.223 34.3216C114.784 34.3216 115.198 34.8237 115.198 35.2963C115.198 35.8575 114.784 36.271 114.223 36.271H108.965V56.9171C108.965 57.4192 108.552 57.8918 107.991 57.8918C107.429 57.8918 107.016 57.3897 107.016 56.9171V36.271H101.965C101.404 36.271 100.99 35.8575 100.99 35.2963C100.99 34.7942 101.404 34.3216 101.965 34.3216H107.016V26.7898C107.016 26.2876 107.4 25.815 107.902 25.756C108.522 25.6969 108.995 26.1399 108.995 26.7307V34.3216H114.223ZM146.3 44.305V56.7989C146.3 57.3601 145.797 57.7736 145.325 57.7736C144.764 57.7736 144.35 57.3601 144.35 56.7989V44.305C144.35 40.0812 141.958 35.887 137.261 35.887C131.236 35.887 128.637 41.1445 128.991 46.5497C128.991 46.6974 129.05 47.3177 129.05 47.4063V56.7694C129.05 57.2715 128.666 57.7441 128.164 57.8032C127.544 57.8622 127.071 57.4192 127.071 56.8285V15.7431C127.071 15.2409 127.485 14.7684 128.046 14.7684C128.607 14.7684 129.021 15.2705 129.021 15.7431V38.9588C130.704 35.9461 133.717 33.9081 137.232 33.9081C143.021 33.9081 146.3 38.9588 146.3 44.305ZM181.478 45.9885C181.478 46.5497 181.005 47.0223 180.414 47.0223H160.832C161.334 51.8663 164.967 56.2968 170.106 56.2968C173.621 56.2968 176.22 54.9677 178.17 52.1617C178.376 51.8663 178.672 51.6596 179.026 51.6596C179.587 51.6596 180.001 52.0731 180.001 52.6343C180.001 52.841 179.942 52.9887 179.853 53.1364C177.874 56.5626 173.946 58.2462 170.106 58.2462C163.519 58.2462 158.794 52.3389 158.794 46.0476C158.794 39.7268 163.49 33.849 170.106 33.849C176.663 33.849 181.419 39.6972 181.478 45.9885ZM179.351 45.0729C178.938 40.2289 175.216 35.7984 170.077 35.7984C164.967 35.7984 161.304 40.2289 160.802 45.0729H179.351ZM205.52 35.2372C205.52 35.8575 205.166 36.2119 204.605 36.3005C198.845 37.1571 196.246 41.8534 196.246 47.3177V56.6808C196.246 57.1829 195.862 57.6555 195.36 57.7146C194.74 57.7736 194.267 57.3306 194.267 56.7399V35.3849C194.267 34.8828 194.651 34.4102 195.153 34.3511C195.773 34.292 196.246 34.7351 196.246 35.3258V39.6677C197.871 36.9208 201.09 34.3216 204.457 34.3216C204.959 34.3216 205.52 34.676 205.52 35.2372ZM237.745 45.9885C237.745 46.5497 237.272 47.0223 236.682 47.0223H217.099C217.601 51.8663 221.234 56.2968 226.373 56.2968C229.888 56.2968 232.487 54.9677 234.437 52.1617C234.644 51.8663 234.939 51.6596 235.293 51.6596C235.855 51.6596 236.268 52.0731 236.268 52.6343C236.268 52.841 236.209 52.9887 236.12 53.1364C234.141 56.5626 230.213 58.2462 226.373 58.2462C219.787 58.2462 215.061 52.3389 215.061 46.0476C215.061 39.7268 219.757 33.849 226.373 33.849C232.96 33.849 237.715 39.6972 237.745 45.9885ZM235.648 45.0729C235.234 40.2289 231.513 35.7984 226.373 35.7984C221.234 35.7984 217.601 40.2289 217.099 45.0729H235.648ZM269.408 35.4735V56.9171C269.408 57.4783 268.906 57.8918 268.433 57.8918C267.872 57.8918 267.459 57.4783 267.459 56.9171V52.841C265.834 56.0605 262.969 58.3939 259.307 58.3939C253.488 58.3939 250.268 53.3432 250.268 47.997V35.444C250.268 34.9419 250.682 34.4693 251.243 34.4693C251.804 34.4693 252.218 34.9714 252.218 35.444V47.997C252.218 52.2208 254.61 56.415 259.307 56.415C265.893 56.415 267.459 50.2418 267.459 43.4189V35.4144C267.459 34.8237 268.079 34.233 268.788 34.4988C269.142 34.676 269.408 35.06 269.408 35.4735ZM319 44.2163V56.7694C319 57.3306 318.498 57.7441 318.025 57.7441C317.464 57.7441 317.051 57.3306 317.051 56.7694V44.2163C317.051 39.9926 314.658 35.8575 309.962 35.8575C304.055 35.8575 301.81 42.1783 301.81 47.0814V56.7694C301.81 57.3306 301.308 57.7441 300.835 57.7441C300.274 57.7441 299.86 57.3306 299.86 56.7694V44.2163C299.86 39.9926 297.468 35.8575 292.772 35.8575C286.805 35.8575 284.354 40.5538 284.56 46.8156C284.56 46.9632 284.619 47.2291 284.56 47.3177V56.7399C284.56 57.242 284.176 57.7146 283.674 57.7736C283.054 57.8327 282.581 57.3897 282.581 56.7989V35.3849C282.581 34.8828 282.965 34.4102 283.468 34.3511C284.088 34.292 284.56 34.7351 284.56 35.3258V38.8998C286.244 35.887 289.257 33.9081 292.772 33.9081C296.759 33.9081 299.86 36.4482 301.13 40.1403C302.755 36.4778 305.915 33.9081 309.962 33.9081C315.722 33.9081 319 38.8998 319 44.2163Z" fill="#034638"/>
<path opacity="0.6" d="M24.5154 55.204L49.0603 40.7015L24.5154 29.5662L0 40.7015L24.5154 55.204Z" fill="#034638"/>
<path opacity="0.45" d="M24.5154 29.5661V0L0 40.7014L24.5154 55.2039V29.5661Z" fill="#034638"/>
<path opacity="0.8" d="M24.5176 55.2039L49.0625 40.7014L24.5176 0V29.5661V55.2039Z" fill="#034638"/>
<path opacity="0.45" d="M24.5154 59.8413L0 45.3684L24.5154 79.9262V59.8413Z" fill="#034638"/>
<path opacity="0.8" d="M49.0625 45.3684L24.5176 59.8413V79.9262L49.0625 45.3684Z" fill="#034638"/>
</svg>
