<svg width="600" height="96" viewBox="0 0 600 96" fill="none" xmlns="http://www.w3.org/2000/svg">
<g clip-path="url(#clip0_3_12308)">
<path d="M105.532 41.3839L84.6543 5.30565C83.72 3.68945 82.3755 2.34793 80.7563 1.41641C79.1371 0.484897 77.3006 -0.00366226 75.432 2.06692e-05H33.7193C31.4065 0.00621159 29.1357 0.617939 27.1335 1.77418C25.1313 2.93043 23.4676 4.59078 22.3084 6.58961L1.43077 42.6679C0.498253 44.281 0.00732422 46.1108 0.00732422 47.9735C0.00732422 49.8362 0.498253 51.666 1.43077 53.2791L22.3084 89.4104C23.4685 91.4108 25.1338 93.0722 27.1381 94.2285C29.1423 95.3848 31.4153 95.9957 33.73 96H75.432C77.2934 95.9963 79.1211 95.5042 80.7322 94.573C82.3433 93.6419 83.6811 92.3044 84.6118 90.6944L105.489 54.6161C106.662 52.6094 107.283 50.3291 107.291 48.0057C107.298 45.6823 106.691 43.3981 105.532 41.3839ZM7.35937 48.122L9.71806 44.0792L28.3645 11.7679L40.0517 32.0142C40.597 32.8657 41.4502 33.4744 42.4335 33.7135C43.4169 33.9526 44.4547 33.8037 45.331 33.2978C46.2072 32.7918 46.8542 31.9679 47.1375 30.9975C47.4207 30.027 47.3183 28.9849 46.8515 28.088L37.438 11.7679C36.6576 10.6126 35.6165 9.6565 34.3985 8.97642C33.1806 8.29634 31.8198 7.91132 30.4257 7.85235H72.5209L52.727 42.0949C52.3773 42.6976 51.8753 43.1981 51.2712 43.5463C50.6671 43.8946 49.9821 44.0783 49.2846 44.0792H14.4673C13.0313 44.0697 11.6182 44.4385 10.3703 45.1483C9.12242 45.858 8.0839 46.8837 7.35937 48.122ZM72.5209 88.1583H35.1749L46.8621 67.8908C47.1483 67.444 47.3408 66.9439 47.4281 66.4207C47.5154 65.8975 47.4956 65.3621 47.37 64.8467C47.2444 64.3313 47.0155 63.8468 46.6972 63.4222C46.3789 62.9976 45.9777 62.6418 45.5179 62.3764C45.0582 62.1109 44.5493 61.9412 44.0221 61.8776C43.4948 61.8139 42.9601 61.8577 42.4503 62.0061C41.9404 62.1545 41.466 62.4046 41.0555 62.7412C40.6451 63.0778 40.3072 63.494 40.0623 63.9646L28.3751 84.2321L26.0483 88.2856C26.6909 87.1635 27.0577 85.9051 27.1187 84.6138C27.1796 83.3226 26.933 82.0353 26.3989 80.8578L9.69681 51.9209H49.2846C49.9818 51.9228 50.6665 52.107 51.2704 52.4551C51.8743 52.8032 52.3765 53.3031 52.727 53.9052L70.3109 84.317C71.087 85.456 72.1202 86.397 73.3271 87.0642C74.534 87.7315 75.881 88.1062 77.2595 88.1583H72.5209ZM97.999 51.9315L79.3313 84.2321L59.4949 49.9896C59.1482 49.3856 58.9658 48.7015 58.9658 48.0053C58.9658 47.3091 59.1482 46.625 59.4949 46.021L79.3313 11.7679L81.6581 7.72501C80.8797 9.08714 80.5081 10.6434 80.5872 12.2098C80.6662 13.7761 81.1927 15.2872 82.1044 16.5642C82.7737 17.498 98.0415 44.0685 98.0415 44.0685H74.5502C73.5076 44.0685 72.5077 44.4822 71.7704 45.2185C71.0332 45.9548 70.619 46.9534 70.619 47.9947C70.619 49.036 71.0332 50.0346 71.7704 50.7709C72.5077 51.5072 73.5076 51.9209 74.5502 51.9209H93.356H93.2497C94.6857 51.9303 96.0989 51.5615 97.3467 50.8518C98.5946 50.142 99.6331 49.1163 100.358 47.878L97.9883 51.9421L97.999 51.9315Z" fill="#034638"/>
<path d="M333.115 26.7104C330.69 26.6583 328.298 27.283 326.209 28.5144C324.194 29.7565 322.39 31.3111 320.865 33.1196L320.652 33.3743H319.409L318.113 27.6655H304.598C304.098 27.6655 303.609 27.8178 303.197 28.1022C302.785 28.3865 302.47 28.7894 302.293 29.2571L299.849 35.7618H315.489C315.489 35.7618 310.591 35.7618 310.591 39.7304V61.4199H304.588C304.087 61.4199 303.598 61.5722 303.186 61.8566C302.774 62.1409 302.459 62.5438 302.282 63.0115L299.838 69.5162H334.486C334.989 69.5175 335.481 69.3647 335.896 69.0782C336.31 68.7917 336.626 68.3854 336.802 67.9139L339.246 61.4092H320.44V42.0543L320.557 41.8739C321.583 40.3075 322.844 38.9081 324.297 37.7249C326.028 36.4079 328.168 35.7395 330.342 35.8361C331.03 35.7917 331.718 35.9315 332.335 36.2412C332.951 36.5508 333.473 37.019 333.848 37.5976C334.549 38.9004 334.897 40.3636 334.858 41.8421H343.58C343.506 36.4622 342.518 32.5679 340.744 30.2652C339.854 29.1019 338.695 28.1711 337.367 27.552C336.038 26.933 334.579 26.6443 333.115 26.7104Z" fill="#034638"/>
<path d="M386.21 47.7497C384.058 46.7212 381.809 45.9107 379.495 45.3303L372.642 43.5582C370.826 43.0957 369.049 42.4889 367.33 41.7437C365.64 40.9903 364.78 39.9292 364.78 38.5603C364.796 37.7664 365.061 36.9976 365.538 36.3619C366.014 35.7262 366.678 35.2556 367.436 35.0162C369.408 34.2803 371.505 33.9378 373.609 34.0081C375.012 34.0113 376.412 34.1607 377.784 34.4538C379.146 34.7418 380.485 35.1283 381.79 35.6104C383.044 36.0773 384.266 36.5973 385.402 37.149C386.295 37.5841 387.113 38.0086 387.835 38.4224L391.883 31.8753C391.175 31.4013 390.4 30.8849 389.557 30.326C388.318 29.5593 387 28.9295 385.625 28.4478C383.839 27.8234 382.006 27.3408 380.143 27.0047C377.726 26.5834 375.276 26.3845 372.823 26.4105C370.385 26.3948 367.955 26.6799 365.587 27.2594C363.57 27.7389 361.654 28.5686 359.924 29.7106C358.423 30.7173 357.164 32.0436 356.237 33.5943C355.321 35.2097 354.862 37.0438 354.909 38.8999C354.818 41.039 355.513 43.1376 356.864 44.7998C358.271 46.4103 359.978 47.7329 361.89 48.6941C364.017 49.7708 366.264 50.5936 368.583 51.1453C371.048 51.7501 373.354 52.3444 375.447 52.928C377.291 53.4162 379.086 54.0697 380.812 54.8805C381.526 55.1316 382.148 55.5901 382.599 56.1971C383.049 56.8041 383.308 57.5318 383.341 58.2867C383.375 59.094 383.164 59.8927 382.735 60.5781C382.307 61.2635 381.681 61.8037 380.94 62.1279C378.22 63.4225 374.246 63.4119 370.453 62.4781C368.723 62.0577 367.026 61.5115 365.375 60.844C363.877 60.2445 362.433 59.5167 361.061 58.6687C360.094 58.0638 359.287 57.512 358.617 57.0027L354.176 63.9531C356.603 65.8987 359.316 67.4592 362.219 68.5796C366.244 70.0895 370.522 70.8101 374.82 70.7018C380.929 70.7018 385.572 69.4815 388.632 67.0834C390.113 65.9326 391.294 64.4428 392.076 62.7399C392.858 61.037 393.219 59.1711 393.127 57.2998C393.213 55.2053 392.52 53.1529 391.182 51.5379C389.794 49.9565 388.104 48.6684 386.21 47.7497Z" fill="#034638"/>
<path d="M441.518 58.1389C440.616 58.8779 439.653 59.5382 438.638 60.1126C437.506 60.7471 436.305 61.2491 435.058 61.6088C433.61 62.0189 432.111 62.219 430.606 62.203C429.182 62.2724 427.761 62.0171 426.45 61.4563C425.139 60.8956 423.974 60.0442 423.041 58.9666C421.267 56.8443 420.364 53.4487 420.364 48.8541V35.7598H440.03L443.048 27.6634H420.374V14.8556L412.321 17.1476C411.806 17.2951 411.354 17.6057 411.032 18.0326C410.71 18.4595 410.536 18.9795 410.536 19.5139V27.6952H406.7C406.2 27.6953 405.711 27.8476 405.299 28.1319C404.887 28.4163 404.572 28.8191 404.395 29.2869L401.951 35.7916H415.816C415.816 35.7916 410.504 35.7916 410.504 39.9618V48.8116C410.504 56.4411 412.087 62.0651 415.221 65.5137C418.356 68.9624 423.063 70.692 429.299 70.692C431.086 70.6845 432.867 70.4853 434.612 70.0978C436.394 69.7116 438.137 69.1609 439.818 68.453C441.437 67.772 442.994 66.9519 444.471 66.0018C445.64 65.265 446.71 64.3844 447.659 63.3809L443.207 56.7064L441.518 58.1389Z" fill="#034638"/>
<path d="M492.33 60.7605C492.273 60.0531 492.188 59.2891 492.075 58.4685C491.954 56.9263 491.894 55.5363 491.894 54.2983C491.894 52.6642 492 50.7754 492.202 48.6849C492.404 46.5945 492.5 44.1433 492.5 41.2571C492.524 39.2208 492.241 37.1925 491.66 35.2405C491.147 33.5625 490.24 32.031 489.015 30.7732C487.652 29.4437 485.996 28.4516 484.181 27.8763C481.775 27.1222 479.264 26.7638 476.743 26.8152C473.172 26.7456 469.605 27.1019 466.118 27.8763C463.619 28.4761 461.171 29.2745 458.798 30.2638L461.05 37.6917C462.787 36.9548 464.56 36.3067 466.363 35.7498C468.997 34.9499 471.738 34.5598 474.491 34.5932C476.616 34.4562 478.728 35.0069 480.515 36.1637C481.96 37.2248 482.64 39.0287 482.64 41.4693V43.0822C482.641 43.7197 482.581 44.3558 482.459 44.9816L482.374 45.6289H481.747C480.069 45.5157 478.652 45.399 477.498 45.2787C476.371 45.162 475.298 45.109 474.31 45.109C471.685 45.0843 469.065 45.3548 466.501 45.9154C464.414 46.3595 462.423 47.1755 460.625 48.3242C459.08 49.3347 457.827 50.7324 456.992 52.3777C456.113 54.2365 455.683 56.2756 455.738 58.3306C455.663 59.9442 455.942 61.5548 456.557 63.0489C457.172 64.543 458.108 65.8844 459.297 66.9787C461.677 69.101 464.96 70.2576 469.072 70.2576C471.937 70.4001 474.787 69.7619 477.317 68.4113C479.192 67.3167 480.795 65.8109 482.002 64.0076L482.215 63.6786H483.628L484.765 69.5679H494.444C495.018 69.5679 495.575 69.3676 496.017 69.0014C496.46 68.6352 496.76 68.1262 496.866 67.5624L498.014 61.4715H492.436L492.33 60.7605ZM482.576 57.0784L482.491 57.2376C481.695 58.6158 480.607 59.8037 479.304 60.7181C477.333 61.9471 475.024 62.5262 472.706 62.3735C470.326 62.3735 468.637 61.8747 467.542 60.8348C466.99 60.279 466.56 59.6147 466.278 58.8841C465.996 58.1535 465.87 57.3724 465.906 56.5903C465.882 55.5406 466.203 54.512 466.82 53.6616C467.429 52.8572 468.219 52.2066 469.125 51.7622C470.104 51.2637 471.148 50.9064 472.228 50.7011C474.596 50.3075 477.011 50.2753 479.389 50.6056C480.557 50.7541 481.418 50.8815 482.013 50.9982L482.587 51.1149V57.0678L482.576 57.0784Z" fill="#034638"/>
<path d="M532.137 46.6891L548.999 27.6844H537.619L523.446 44.8852H519.791V10.3456H507.594C507.093 10.3456 506.605 10.498 506.193 10.7823C505.781 11.0666 505.465 11.4695 505.288 11.9373L502.845 18.442H514.723C514.723 18.442 509.953 18.442 509.953 21.9225V69.5139H519.791V51.5915H523.871L538.746 69.5139H546.991C547.494 69.5152 547.986 69.3623 548.4 69.0759C548.815 68.7894 549.131 68.3831 549.307 67.9116L551.75 61.4069H544.058L532.137 46.6891Z" fill="#034638"/>
<path d="M233.002 27.6648C232.48 27.6645 231.971 27.8298 231.549 28.1368C231.127 28.4438 230.814 28.8768 230.654 29.3732L221.719 54.2248H220.104L208.183 27.6966H199.513C199.012 27.6967 198.523 27.849 198.112 28.1333C197.7 28.4177 197.384 28.8205 197.207 29.2883L194.764 35.793H206.865C206.865 35.793 201.085 35.793 203.285 41.0986L215.514 69.5156H225.756L241.768 27.6542L233.002 27.6648Z" fill="#034638"/>
<path d="M182.481 30.1667C180.613 28.8182 178.503 27.8418 176.265 27.291C171.119 25.9994 165.712 26.187 160.668 27.8322C158.021 28.7031 155.582 30.1121 153.507 31.9706C151.439 33.8964 149.818 36.2505 148.758 38.8679C147.525 41.9575 146.925 45.2627 146.994 48.5878C146.941 51.7582 147.467 54.9117 148.545 57.8939C149.505 60.5247 151.044 62.9069 153.048 64.8646C155.053 66.8223 157.471 68.3058 160.126 69.2055C163.242 70.2588 166.516 70.772 169.805 70.7229C171.93 70.7229 181.62 70.3621 189.047 65.0565L187.676 58.1379C182.534 61.3845 176.58 63.1202 170.496 63.1464C168.795 63.1689 167.097 62.9872 165.439 62.6053C163.903 62.2432 162.445 61.6069 161.136 60.7271C159.864 59.8611 158.809 58.7136 158.054 57.3739C157.23 55.8325 156.796 54.1129 156.79 52.3654V51.6332H188.069C188.542 49.2171 188.791 46.7626 188.813 44.3009C188.921 41.3101 188.308 38.3372 187.028 35.6315C185.96 33.4805 184.403 31.609 182.481 30.1667ZM179.803 44.7996H156.992L157.056 44.0356C157.162 42.5398 157.609 41.0881 158.363 39.7911C159.083 38.5493 160.048 37.4663 161.199 36.6077C162.352 35.7555 163.642 35.106 165.014 34.6871C166.46 34.2493 167.964 34.0311 169.476 34.0398C172.897 34.0398 175.511 34.963 177.232 36.7775C179.019 38.7863 179.946 41.4152 179.814 44.0992L179.803 44.7996Z" fill="#034638"/>
<path d="M283.371 30.1667C281.504 28.8182 279.393 27.8418 277.156 27.291C272.01 25.9994 266.603 26.187 261.559 27.8322C258.911 28.7031 256.473 30.1121 254.398 31.9706C252.312 33.888 250.673 36.2387 249.595 38.8573C248.363 41.9469 247.763 45.252 247.831 48.5772C247.778 51.7476 248.304 54.9011 249.383 57.8833C250.347 60.5186 251.892 62.9035 253.904 64.8616C255.916 66.8196 258.343 68.3006 261.006 69.1949C264.122 70.2482 267.396 70.7614 270.685 70.7123C272.81 70.7123 282.5 70.3515 289.927 65.0459L288.588 58.1485C283.445 61.3951 277.492 63.1308 271.408 63.1571C269.701 63.1665 267.999 62.9705 266.34 62.5734C264.804 62.2113 263.346 61.5751 262.037 60.6952C260.756 59.8185 259.698 58.6559 258.945 57.2996C258.121 55.7582 257.686 54.0387 257.681 52.2911V51.559H289.013C289.486 49.1429 289.735 46.6883 289.757 44.2266C289.852 41.2448 289.233 38.2833 287.95 35.589C286.868 33.45 285.3 31.5932 283.371 30.1667ZM280.694 44.7996H257.882L257.946 44.0356C258.053 42.5398 258.5 41.0881 259.253 39.7911C259.973 38.5493 260.938 37.4663 262.09 36.6077C263.243 35.7555 264.533 35.106 265.904 34.6871C267.351 34.2493 268.855 34.0311 270.367 34.0398C273.788 34.0398 276.401 34.963 278.123 36.7775C279.91 38.7863 280.837 41.4152 280.704 44.0992L280.694 44.7996Z" fill="#034638"/>
<path d="M593.44 30.1667C591.572 28.8182 589.462 27.8418 587.225 27.291C582.078 25.9994 576.671 26.187 571.627 27.8322C568.98 28.7031 566.542 30.1121 564.466 31.9706C562.381 33.888 560.742 36.2387 559.664 38.8573C558.431 41.9469 557.832 45.252 557.9 48.5772C557.847 51.7476 558.373 54.9011 559.451 57.8833C560.415 60.5216 561.962 62.9094 563.976 64.8694C565.99 66.8295 568.42 68.3115 571.086 69.2055C574.202 70.2588 577.475 70.772 580.765 70.7229C582.89 70.7229 592.579 70.3621 600.006 65.0565L598.636 58.1379C593.493 61.3845 587.539 63.1202 581.455 63.1464C579.749 63.1559 578.047 62.9599 576.387 62.5628C574.851 62.2007 573.394 61.5644 572.084 60.6846C570.812 59.8187 569.758 58.6712 569.003 57.3315C568.179 55.79 567.745 54.0705 567.739 52.323V51.5908H599.092C599.565 49.1747 599.814 46.7202 599.836 44.2584C599.944 41.2677 599.332 38.2948 598.051 35.589C596.959 33.4466 595.38 31.5895 593.44 30.1667ZM590.741 44.7996H567.951L568.015 44.0356C568.121 42.5398 568.568 41.0881 569.322 39.7911C570.042 38.5493 571.007 37.4663 572.159 36.6077C573.312 35.7555 574.601 35.106 575.973 34.6871C577.42 34.2493 578.924 34.0311 580.435 34.0398C583.857 34.0398 586.47 34.963 588.191 36.7775C589.979 38.7863 590.906 41.4152 590.773 44.0992L590.741 44.7996Z" fill="#034638"/>
</g>
<defs>
<clipPath id="clip0_3_12308">
<rect width="600" height="96" fill="white"/>
</clipPath>
</defs>
</svg>
