<svg width="481" height="480" viewBox="0 0 481 480" fill="none" xmlns="http://www.w3.org/2000/svg">
<path d="M438.691 82.7585C461.544 82.7585 480.07 64.2324 480.07 41.3792C480.07 18.5261 461.544 0 438.691 0C415.838 0 397.312 18.5261 397.312 41.3792C397.312 64.2324 415.838 82.7585 438.691 82.7585Z" fill="#F5FFFD"/>
<path d="M120.419 311.007C104.835 284.551 98.481 253.668 102.356 223.209C106.23 192.75 120.114 164.441 141.825 142.73C163.536 121.018 191.845 107.135 222.304 103.26C252.763 99.386 283.646 105.74 310.102 121.324L343.205 88.2208L341.55 86.8967C305.944 63.4273 263.305 53.0252 220.891 57.4616C178.478 61.8981 138.914 80.8988 108.936 111.228C78.9576 141.558 60.4192 181.341 56.4771 223.803C52.5351 266.265 63.4333 308.78 87.3159 344.11L120.419 311.007Z" fill="#F5FFFD"/>
<path d="M359.473 170.822C375.057 197.277 381.411 228.161 377.537 258.62C373.662 289.079 359.779 317.387 338.067 339.099C316.356 360.81 288.047 374.694 257.588 378.568C227.129 382.443 196.246 376.089 169.791 360.504L136.687 393.608C172.142 417.678 214.88 428.635 257.542 424.592C300.205 420.549 340.124 401.759 370.426 371.457C400.728 341.155 419.518 301.236 423.561 258.574C427.604 215.911 416.647 173.173 392.576 137.719L359.473 170.822Z" fill="#F5FFFD"/>
<path d="M41.3792 480C64.2324 480 82.7585 461.474 82.7585 438.621C82.7585 415.768 64.2324 397.241 41.3792 397.241C18.5261 397.241 0 415.768 0 438.621C0 461.474 18.5261 480 41.3792 480Z" fill="#F5FFFD"/>
</svg>
