<svg width="400" height="400" viewBox="0 0 400 400" fill="none" xmlns="http://www.w3.org/2000/svg">
<path d="M86.4797 101.838C88.3546 99.5131 90.3045 97.2632 92.2544 95.0133C92.3294 94.9383 92.5544 94.8633 92.6294 94.7883C92.7794 94.5634 93.0794 94.4134 93.3044 94.1884L93.4544 93.9634C94.8043 92.6884 96.3042 91.3385 97.9541 90.0636C103.954 85.5638 110.104 82.1139 116.628 79.7891C137.627 72.4394 160.951 76.9392 179.25 94.2634C204.824 118.187 202.499 156.81 182.1 182.459C156.301 220.707 112.053 274.03 173.326 321.803C184.35 330.427 192.525 337.477 227.248 347.526C204.524 351.726 183.45 350.376 160.051 344.452C143.477 335.077 117.378 315.053 108.529 287.979C95.1043 246.956 132.153 185.534 150.002 161.91C174.526 129.212 134.852 93.8134 105.529 133.337C90.3795 153.961 63.6058 212.233 72.9053 255.506C78.3051 280.03 85.5797 297.879 114.303 322.478C108.979 319.328 103.804 315.803 98.7791 311.753C32.1073 249.581 39.8319 153.436 86.4797 101.838Z" fill="#40C1AC"/>
<path d="M313.737 298.196C311.862 300.521 309.912 302.771 307.962 305.021C307.887 305.096 307.662 305.171 307.587 305.246C307.437 305.471 307.137 305.621 306.912 305.846L306.762 306.071C305.412 307.346 303.913 308.696 302.263 309.896C296.263 314.396 290.113 317.845 283.588 320.17C262.589 327.52 239.266 323.02 220.966 305.696C195.393 281.772 197.718 243.149 218.117 217.5C243.915 179.252 288.163 125.929 226.891 78.1567C215.867 69.5321 207.692 62.4825 172.969 52.433C195.693 48.2332 216.767 49.5831 240.166 55.5078C256.74 64.8824 282.839 84.9064 291.688 111.98C305.112 153.003 268.064 214.425 250.215 238.049C225.691 270.748 265.364 306.146 294.688 266.623C309.987 245.999 336.761 187.727 327.461 144.454C322.062 119.93 314.787 102.081 286.063 77.4818C291.388 80.6316 296.563 84.1565 301.588 88.2063C368.109 150.453 360.385 246.599 313.737 298.196Z" fill="#40C1AC"/>
</svg>
