<svg width="466" height="180" viewBox="0 0 466 180" fill="none" xmlns="http://www.w3.org/2000/svg">
<path d="M254.509 56.7C260.804 62.25 263.952 70.5 263.952 81.15V136.5H250.162V85.95C250.162 76.95 248.214 70.3499 244.316 66.2999C240.419 62.2499 235.323 60.2999 228.878 60.2999C224.36 60.2935 219.9 61.3196 215.838 63.2999C211.636 65.55 208.194 68.9948 205.945 73.2C203.247 77.7 202.048 83.55 202.048 90.45V136.5H188.109V52.5L200.849 57.75L201.149 63.45C203.787 58.3994 207.996 54.3452 213.14 51.9C218.456 49.3074 224.314 48.0218 230.227 48.15C240.02 48.15 248.114 51 254.509 56.7Z" fill="#034638"/>
<path d="M362.432 98.4H297.231C297.981 107.25 300.979 114 305.925 118.8C310.871 123.6 317.466 126.15 325.41 126.15C330.891 126.302 336.331 125.172 341.298 122.85C345.276 120.871 348.336 117.432 349.842 113.25L361.383 119.4C358.24 125.293 353.448 130.141 347.594 133.35C341.898 136.65 334.404 138.3 325.41 138.3C312.37 138.3 302.178 134.25 294.683 126.3C287.189 118.35 283.592 107.25 283.592 93.15C283.592 79.05 287.039 68.0999 294.234 60.1499C301.428 52.1999 311.321 48.1499 324.361 48.1499C331.722 47.9531 338.992 49.8238 345.345 53.5499C351.108 57.0024 355.743 62.0578 358.685 68.0999C361.738 74.5145 363.277 81.5456 363.182 88.6499C363.156 91.9133 362.906 95.171 362.432 98.4ZM305.925 67.0499C301.278 71.5499 298.431 77.8499 297.381 86.0999H349.842C348.943 77.9999 346.245 71.6999 341.898 67.1999C337.551 62.6999 331.706 60.2999 324.361 60.2999C317.017 60.2999 310.571 62.5499 305.925 67.0499Z" fill="#034638"/>
<path d="M454.758 60.1499C462.253 68.0999 466 79.0499 466 93.1499C466 107.25 462.253 118.35 454.758 126.3C447.264 134.25 437.072 138.3 424.032 138.3C410.991 138.3 400.799 134.25 393.305 126.3C385.81 118.35 382.213 107.25 382.213 93.1499C382.213 79.0499 385.96 68.0999 393.305 60.1499C400.649 52.1999 410.991 48.1499 424.032 48.1499C437.072 48.1499 447.414 52.1999 454.758 60.1499ZM403.497 68.9999C398.551 74.8499 396.003 82.9499 396.003 93.1499C396.003 103.35 398.551 111.6 403.497 117.45C408.443 123.3 415.338 126.3 424.032 126.3C432.725 126.3 439.77 123.3 444.716 117.45C449.662 111.6 452.061 103.5 452.061 93.1499C452.061 82.7999 449.662 74.8499 444.716 68.9999C439.77 63.1499 432.875 60.1499 424.032 60.1499C415.188 60.1499 408.443 62.9999 403.497 68.9999Z" fill="#034638"/>
<path d="M0 31.5V151.95L78.2412 180V58.5L162.628 27.45L86.0354 0L0 31.5Z" fill="#2A6458"/>
<path d="M84.5381 63.0001V127.95L162.629 155.85V34.05L84.5381 63.0001Z" fill="#034638"/>
</svg>
