<svg width="591" height="112" viewBox="0 0 591 112" fill="none" xmlns="http://www.w3.org/2000/svg">
<path d="M55.492 3.05176e-05C39.468 3.05176e-05 0.00317383 39.8274 0.00317383 55.9997C0.00317383 72.1721 39.468 112 55.492 112C71.5159 112 110.981 72.1714 110.981 55.9997C110.981 39.8281 71.5165 3.05176e-05 55.492 3.05176e-05ZM46.845 88.0222C40.0879 86.164 21.9207 54.0924 23.7623 47.273C25.6039 40.4533 57.3822 22.1193 64.1393 23.9778C70.8968 25.8361 89.0639 57.9071 87.2223 64.7268C85.3807 71.5465 53.6021 89.8808 46.845 88.0222Z" fill="#034638"/>
<path d="M188.546 68.4114V68.391L157.017 9.70293C156.396 8.54774 154.681 8.82441 154.448 10.1173L138.746 97.2789C138.592 98.1331 139.243 98.9194 140.103 98.9194H152.251C152.918 98.9194 153.489 98.4382 153.608 97.7763L162.752 46.919L187.33 94.2071C187.847 95.2006 189.256 95.2006 189.772 94.2071L214.351 46.919L223.495 97.7763C223.614 98.4382 224.185 98.9194 224.851 98.9194H237C237.86 98.9194 238.51 98.1331 238.356 97.2789L222.655 10.1173C222.422 8.82441 220.706 8.54774 220.086 9.70293L188.546 68.4114Z" fill="#034638"/>
<path d="M289.438 11.3451C264.428 11.3451 244.836 30.9588 244.836 56.0026C244.836 81.0464 264.428 100.671 289.438 100.671C314.382 100.671 333.925 81.0519 333.925 56.0026C333.925 30.9533 314.382 11.3451 289.438 11.3451ZM289.438 85.7179C273.129 85.7179 260.351 72.664 260.351 56.0026C260.351 39.3413 273.129 26.2982 289.438 26.2982C305.682 26.2982 318.411 39.3468 318.411 56.0026C318.411 72.6585 305.682 85.7179 289.438 85.7179Z" fill="#034638"/>
<path d="M402.665 66.2464L350.368 9.43814C349.515 8.5117 347.979 9.12074 347.979 10.3853V97.528C347.979 98.2966 348.597 98.9196 349.358 98.9196H362.001C362.762 98.9196 363.38 98.2966 363.38 97.528V45.6612L415.561 102.577C416.413 103.506 417.952 102.898 417.952 101.632V14.4887C417.952 13.7202 417.335 13.0972 416.574 13.0972H404.044C403.283 13.0972 402.665 13.7202 402.665 14.4887V66.2464Z" fill="#034638"/>
<path d="M431.361 98.9191H444.936C445.474 98.9191 445.963 98.6036 446.188 98.1109L456.357 75.8836H488.878L498.819 98.1002C499.042 98.5987 499.533 98.9191 500.075 98.9191H514.805C515.822 98.9191 516.489 97.8461 516.046 96.9221L474.324 9.78473C473.823 8.73659 472.343 8.73659 471.841 9.78473L430.119 96.9221C429.677 97.8461 430.344 98.9191 431.361 98.9191ZM462.733 62.0928L472.84 39.9578L482.757 62.0928H462.733Z" fill="#034638"/>
<path d="M549.003 13.0968H528.14C527.379 13.0968 526.761 13.7198 526.761 14.4883V97.5276C526.761 98.2961 527.379 98.9192 528.14 98.9192H549.003C574.867 98.9192 590.938 82.4761 590.938 56.0025C590.938 29.5289 574.867 13.0968 549.003 13.0968ZM549.003 84.1953H542.276V27.7061H549.003C565.793 27.7061 575.424 38.0205 575.424 56.0025C575.424 73.919 565.793 84.1953 549.003 84.1953Z" fill="#034638"/>
</svg>
