<svg width="479" height="60" viewBox="0 0 479 60" fill="none" xmlns="http://www.w3.org/2000/svg">
<g clip-path="url(#clip0_3_27350)">
<path d="M36.9393 23.2515L48.8693 30.1386L54.1619 27.0638L36.9054 17.1007L19.8555 27.0093L25.1817 30.0839L36.9393 23.2515Z" fill="#034638"/>
<path d="M64.2558 32.8923L58.9632 35.9683L63.4365 38.5498L37.1114 53.8496L28.4976 48.8765L23.2051 51.9522L37.1452 60.0002L74.0552 38.5498L64.2558 32.8923Z" fill="#034638"/>
<path d="M10.6181 38.5495L15.112 35.9385L9.78579 32.8623L-0.00195312 38.5507L13.9382 46.5987L19.2307 43.5226L10.6181 38.5495Z" fill="#034638"/>
<path d="M60.1205 13.6245L54.8278 16.6993L63.4417 21.6722L48.8733 30.1382L37.1156 36.972L25.1857 30.0836L19.8594 27.0089L10.6168 21.6722L36.943 6.3739L45.5568 11.347L50.8483 8.27094L36.9079 0.223145L-0.00195312 21.6736L37.1494 43.1226L74.0592 21.6722L60.1205 13.6245Z" fill="#034638"/>
<path d="M92.5888 37.4694H100.087C100.235 38.7284 100.808 39.8762 101.808 40.9128C102.845 41.9125 104.196 42.7086 105.862 43.3009C107.529 43.8564 109.398 44.134 111.472 44.134C113.36 44.134 114.915 43.9304 116.137 43.5232C117.359 43.1158 118.266 42.542 118.858 41.8014C119.451 41.061 119.747 40.1723 119.747 39.1356C119.747 38.1359 119.377 37.3769 118.636 36.8586C117.896 36.3032 116.729 35.8589 115.137 35.5257C113.545 35.1555 111.453 34.7851 108.861 34.4149C106.825 34.1187 104.9 33.7114 103.086 33.1931C101.271 32.6376 99.6607 31.9342 98.2537 31.0826C96.8838 30.231 95.7916 29.1943 94.977 27.9724C94.1994 26.7136 93.8107 25.2326 93.8107 23.5295C93.8107 21.419 94.4031 19.5677 95.5879 17.9757C96.8098 16.3835 98.6054 15.1432 100.975 14.2546C103.345 13.366 106.251 12.9218 109.695 12.9218C114.878 12.9218 118.858 14.0324 121.635 16.2539C124.449 18.4384 125.819 21.456 125.745 25.3066H118.525C118.377 23.1221 117.451 21.5486 115.748 20.5859C114.082 19.6232 111.972 19.142 109.417 19.142C107.047 19.142 105.085 19.4937 103.53 20.1972C102.012 20.9006 101.253 22.1039 101.253 23.8072C101.253 24.4735 101.438 25.066 101.808 25.5843C102.178 26.0657 102.808 26.4915 103.696 26.8617C104.585 27.232 105.788 27.5837 107.306 27.9169C108.824 28.2502 110.713 28.5834 112.971 28.9166C115.082 29.2128 116.989 29.6201 118.692 30.1384C120.432 30.6198 121.913 31.2677 123.135 32.0823C124.394 32.8599 125.356 33.8595 126.023 35.0813C126.689 36.3032 127.022 37.8027 127.022 39.5799C127.022 41.7644 126.448 43.6712 125.301 45.3003C124.19 46.8925 122.45 48.1328 120.08 49.0213C117.748 49.91 114.711 50.3544 110.972 50.3544C108.306 50.3544 105.955 50.0766 103.919 49.5212C101.882 48.9288 100.124 48.1513 98.6424 47.1886C97.1615 46.226 95.9581 45.1707 95.0325 44.0229C94.1068 42.8752 93.4404 41.7274 93.0331 40.5796C92.6629 39.4318 92.5148 38.3951 92.5888 37.4694Z" fill="#034638"/>
<path d="M144.374 50.1878C141.635 50.1878 139.135 49.5954 136.877 48.4106C134.656 47.1888 132.877 45.5041 131.545 43.3567C130.249 41.1722 129.602 38.6545 129.602 35.8035C129.602 32.8785 130.268 30.3422 131.601 28.1948C132.933 26.0473 134.73 24.3811 136.988 23.1963C139.283 21.9745 141.875 21.3636 144.762 21.3636C147.948 21.3636 150.502 22.0115 152.427 23.3074C154.389 24.5662 155.815 26.288 156.704 28.4725C157.592 30.657 158.036 33.1007 158.036 35.8035C158.036 37.4325 157.777 39.0988 157.259 40.8019C156.741 42.4681 155.944 44.0231 154.87 45.4671C153.797 46.8741 152.39 48.0219 150.65 48.9104C148.91 49.762 146.818 50.1878 144.374 50.1878ZM146.707 44.6341C148.891 44.6341 150.779 44.2637 152.372 43.5233C153.964 42.7828 155.186 41.746 156.037 40.4131C156.889 39.0802 157.315 37.5437 157.315 35.8035C157.315 33.9151 156.871 32.3231 155.981 31.0272C155.13 29.6943 153.908 28.6946 152.316 28.0281C150.761 27.3247 148.891 26.973 146.707 26.973C143.634 26.973 141.245 27.7875 139.542 29.4167C137.839 31.0087 136.988 33.1377 136.988 35.8035C136.988 37.5808 137.395 39.1358 138.21 40.4687C139.024 41.7645 140.154 42.7828 141.598 43.5233C143.079 44.2637 144.782 44.6341 146.707 44.6341ZM157.315 21.9745H164.534V49.5769H157.814C157.814 49.5769 157.759 49.2252 157.648 48.5217C157.574 47.7811 157.5 46.8556 157.426 45.7448C157.352 44.6341 157.315 43.5418 157.315 42.4681V21.9745Z" fill="#034638"/>
<path d="M167.461 21.9746H188.899V27.584H167.461V21.9746ZM174.57 14.4215H181.789V49.577H174.57V14.4215Z" fill="#034638"/>
<path d="M190.707 40.4131H197.371C197.778 41.672 198.612 42.7087 199.871 43.5233C201.167 44.3008 202.852 44.6896 204.925 44.6896C206.332 44.6896 207.424 44.56 208.202 44.3008C208.979 44.0416 209.516 43.6714 209.812 43.19C210.108 42.6717 210.256 42.0977 210.256 41.4684C210.256 40.6908 210.016 40.0985 209.535 39.6911C209.053 39.2468 208.313 38.8951 207.313 38.6359C206.314 38.3767 205.036 38.1361 203.481 37.9139C201.926 37.6548 200.426 37.34 198.982 36.9698C197.539 36.5996 196.261 36.1182 195.15 35.5258C194.039 34.8963 193.151 34.1189 192.484 33.1932C191.855 32.2305 191.54 31.0642 191.54 29.6943C191.54 28.3614 191.855 27.1766 192.484 26.1399C193.151 25.1032 194.059 24.2331 195.206 23.5296C196.391 22.8261 197.761 22.2893 199.316 21.919C200.907 21.5488 202.61 21.3636 204.424 21.3636C207.165 21.3636 209.441 21.7709 211.257 22.5855C213.071 23.3629 214.421 24.4737 215.31 25.9178C216.236 27.3247 216.699 28.9538 216.699 30.8051H210.312C210.016 29.4352 209.424 28.454 208.535 27.8615C207.647 27.2322 206.277 26.9173 204.424 26.9173C202.61 26.9173 201.241 27.1951 200.315 27.7505C199.39 28.3059 198.926 29.0648 198.926 30.0275C198.926 30.8051 199.204 31.4159 199.76 31.8603C200.352 32.2676 201.204 32.6008 202.314 32.86C203.462 33.1192 204.888 33.3968 206.591 33.693C208.035 33.9893 209.404 34.3225 210.7 34.6927C212.034 35.0629 213.219 35.5443 214.256 36.1367C215.292 36.6921 216.107 37.4511 216.699 38.4137C217.328 39.3394 217.644 40.5242 217.644 41.9682C217.644 43.7454 217.125 45.2449 216.087 46.4668C215.088 47.6886 213.644 48.6328 211.756 49.2993C209.868 49.9286 207.61 50.2433 204.981 50.2433C202.647 50.2433 200.63 50.0027 198.926 49.5214C197.26 49.003 195.873 48.3551 194.762 47.5775C193.651 46.7629 192.781 45.9114 192.151 45.0228C191.559 44.0971 191.152 43.227 190.93 42.4125C190.707 41.5979 190.633 40.9314 190.707 40.4131Z" fill="#034638"/>
<path d="M228.787 13.6443H266.664V19.809H228.787V13.6443ZM244.06 19.0315H251.447V49.5774H244.06V19.0315Z" fill="#034638"/>
<path d="M290.076 40.4131H297.073C296.777 42.3015 295.981 43.9861 294.686 45.4671C293.426 46.9482 291.705 48.1145 289.521 48.9659C287.335 49.8176 284.67 50.2433 281.523 50.2433C278.006 50.2433 274.895 49.688 272.192 48.5772C269.49 47.4294 267.379 45.7819 265.861 43.6344C264.342 41.4869 263.584 38.8951 263.584 35.859C263.584 32.823 264.324 30.2311 265.805 28.0836C267.286 25.8993 269.341 24.233 271.97 23.0853C274.635 21.9375 277.747 21.3636 281.301 21.3636C284.929 21.3636 287.947 21.9375 290.353 23.0853C292.759 24.233 294.538 25.9733 295.685 28.3059C296.87 30.6015 297.369 33.5449 297.184 37.1364H270.859C271.044 38.5433 271.563 39.8208 272.414 40.9685C273.303 42.1162 274.487 43.0234 275.968 43.6899C277.487 44.3563 279.282 44.6896 281.355 44.6896C283.652 44.6896 285.558 44.3008 287.076 43.5233C288.632 42.7087 289.632 41.672 290.076 40.4131ZM280.967 26.8618C278.302 26.8618 276.135 27.4543 274.47 28.6391C272.804 29.7869 271.73 31.2123 271.249 32.9156H290.02C289.835 31.0642 288.946 29.6018 287.354 28.528C285.799 27.4173 283.67 26.8618 280.967 26.8618Z" fill="#034638"/>
<path d="M300.895 21.9745H308.114V49.5769H300.895V21.9745ZM318.722 27.9171C316.648 27.9171 314.853 28.3244 313.335 29.1389C311.816 29.9165 310.594 30.8791 309.669 32.0269C308.743 33.1747 308.096 34.2855 307.726 35.3592L307.669 32.3046C307.706 31.8603 307.855 31.2123 308.114 30.3607C308.373 29.4722 308.762 28.528 309.28 27.5283C309.799 26.4916 310.483 25.5104 311.335 24.5848C312.186 23.6222 313.224 22.8446 314.446 22.2523C315.667 21.6598 317.092 21.3636 318.722 21.3636V27.9171Z" fill="#034638"/>
<path d="M321.52 21.9745H328.739V49.5769H321.52V21.9745ZM341.568 21.3636C343.271 21.3636 344.845 21.5858 346.289 22.03C347.733 22.4744 348.992 23.1593 350.065 24.085C351.139 25.0106 351.973 26.1954 352.565 27.6394C353.157 29.0463 353.454 30.7311 353.454 32.6933V49.5769H346.233V33.9708C346.233 31.6382 345.66 29.935 344.512 28.8612C343.402 27.7505 341.568 27.1951 339.014 27.1951C337.089 27.1951 335.348 27.5653 333.793 28.3059C332.238 29.0463 330.979 29.9905 330.017 31.1383C329.054 32.2491 328.499 33.4153 328.351 34.6372L328.294 31.8048C328.48 30.5089 328.906 29.2499 329.572 28.0281C330.239 26.8063 331.127 25.6955 332.238 24.6959C333.385 23.6592 334.737 22.8446 336.292 22.2523C337.847 21.6598 339.606 21.3636 341.568 21.3636ZM365.617 21.3636C367.32 21.3636 368.893 21.5858 370.337 22.03C371.782 22.4744 373.04 23.1593 374.114 24.085C375.188 25.0106 376.02 26.1954 376.612 27.6394C377.243 29.0463 377.557 30.7311 377.557 32.6933V49.5769H370.337V33.9708C370.337 31.6382 369.763 29.935 368.616 28.8612C367.468 27.7505 365.617 27.1951 363.061 27.1951C361.136 27.1951 359.396 27.5653 357.841 28.3059C356.286 29.0463 355.028 29.9905 354.065 31.1383C353.101 32.2491 352.565 33.4153 352.454 34.6372L352.343 31.6382C352.528 30.4162 352.972 29.1944 353.676 27.9726C354.379 26.7508 355.305 25.64 356.452 24.6404C357.6 23.6407 358.933 22.8446 360.452 22.2523C362.007 21.6598 363.728 21.3636 365.617 21.3636Z" fill="#034638"/>
<path d="M390.715 9.86743V16.1987H382.328V9.86743H390.715ZM382.883 21.9747H390.104V49.5771H382.883V21.9747Z" fill="#034638"/>
<path d="M395.633 21.9745H402.853V49.5769H395.633V21.9745ZM415.682 21.3636C417.386 21.3636 418.959 21.5858 420.403 22.03C421.846 22.4744 423.106 23.1593 424.18 24.085C425.254 25.0106 426.086 26.1954 426.678 27.6394C427.271 29.0463 427.567 30.7311 427.567 32.6933V49.5769H420.348V33.9708C420.348 31.6382 419.773 29.935 418.626 28.8612C417.515 27.7505 415.682 27.1951 413.127 27.1951C411.202 27.1951 409.462 27.5653 407.907 28.3059C406.352 29.0463 405.092 29.9905 404.13 31.1383C403.167 32.2491 402.612 33.4153 402.464 34.6372L402.409 31.8048C402.594 30.5089 403.019 29.2499 403.686 28.0281C404.352 26.8063 405.24 25.6955 406.352 24.6959C407.5 23.6592 408.851 22.8446 410.406 22.2523C411.962 21.6598 413.72 21.3636 415.682 21.3636Z" fill="#034638"/>
<path d="M445.922 50.1878C443.182 50.1878 440.683 49.5954 438.424 48.4106C436.202 47.1888 434.425 45.5041 433.093 43.3567C431.797 41.1722 431.148 38.6545 431.148 35.8035C431.148 32.8785 431.815 30.3422 433.149 28.1948C434.482 26.0473 436.277 24.3811 438.535 23.1963C440.831 21.9745 443.423 21.3636 446.311 21.3636C449.494 21.3636 452.05 22.0115 453.975 23.3074C455.937 24.5662 457.363 26.288 458.252 28.4725C459.14 30.657 459.585 33.1007 459.585 35.8035C459.585 37.4325 459.325 39.0988 458.807 40.8019C458.289 42.4681 457.492 44.0231 456.419 45.4671C455.345 46.8741 453.938 48.0219 452.198 48.9104C450.458 49.762 448.366 50.1878 445.922 50.1878ZM448.255 44.6341C450.439 44.6341 452.327 44.2637 453.919 43.5233C455.511 42.7828 456.734 41.746 457.585 40.4131C458.437 39.0802 458.862 37.5437 458.862 35.8035C458.862 33.9151 458.418 32.3231 457.529 31.0272C456.678 29.6943 455.456 28.6946 453.864 28.0281C452.309 27.3247 450.439 26.973 448.255 26.973C445.182 26.973 442.794 27.7875 441.091 29.4167C439.388 31.0087 438.535 33.1377 438.535 35.8035C438.535 37.5808 438.943 39.1358 439.758 40.4687C440.572 41.7645 441.701 42.7828 443.145 43.5233C444.627 44.2637 446.33 44.6341 448.255 44.6341ZM458.862 21.9745H466.083V49.5769H459.362C459.362 49.5769 459.306 49.2252 459.195 48.5217C459.121 47.7811 459.047 46.8556 458.973 45.7448C458.899 44.6341 458.862 43.5418 458.862 42.4681V21.9745Z" fill="#034638"/>
<path d="M471.5 10.8673H478.72V49.5773H471.5V10.8673Z" fill="#034638"/>
</g>
<defs>
<clipPath id="clip0_3_27350">
<rect width="478.723" height="60" fill="white"/>
</clipPath>
</defs>
</svg>
