<svg width="600" height="112" viewBox="0 0 600 112" fill="none" xmlns="http://www.w3.org/2000/svg">
<path d="M203.062 61.34H225.653C228.83 61.34 231.404 63.9414 231.404 67.1179C231.404 70.3218 228.83 72.8959 225.653 72.8959H198.406C197.968 72.8959 197.558 73.0602 197.256 73.334L189.041 80.4264C187.782 81.5217 188.548 83.5755 190.191 83.5755H224.284C224.284 83.5755 224.311 83.5755 224.311 83.5481C224.311 83.5207 224.339 83.5207 224.339 83.5207C224.777 83.5481 225.188 83.5755 225.626 83.5755C234.662 83.5755 242.001 76.2093 242.001 67.1179C242.001 58.4921 235.402 51.3997 226.968 50.7151C226.968 50.7151 226.94 50.7151 226.94 50.6877C226.94 50.6603 226.94 50.6603 226.913 50.6603H202.596C199.42 50.6603 196.846 48.0589 196.846 44.8824C196.846 41.6785 199.42 39.1044 202.596 39.1044H229.788C230.226 39.1044 230.664 38.9401 230.993 38.6389L238.633 31.5465C239.838 30.4238 239.044 28.4248 237.428 28.4248H203.062C202.925 28.4248 202.76 28.4248 202.623 28.4248C193.587 28.4248 186.248 35.791 186.248 44.8824C186.248 53.9738 193.587 61.34 202.623 61.34C202.76 61.34 202.897 61.34 203.062 61.34Z" fill="#F5FFFD"/>
<path d="M334.558 28.3968C333.572 28.3968 332.778 29.1909 332.778 30.2041V81.7949C332.778 82.7807 333.572 83.6022 334.558 83.6022H375.908C376.4 83.6022 376.866 83.3831 377.222 83.0272L382.397 77.4683C383.465 76.3182 382.671 74.4287 381.083 74.4287H344.991C344.006 74.4287 343.211 73.6346 343.211 72.6214V30.1767C343.211 29.1909 342.417 28.3694 341.432 28.3694H334.558V28.3968Z" fill="#F5FFFD"/>
<path fill-rule="evenodd" clip-rule="evenodd" d="M268.342 28.3977C268.342 28.4251 268.342 28.4251 268.342 28.3977C263.057 28.6442 258.813 32.8886 258.566 38.1737V72.8688C258.566 73.0057 258.566 73.17 258.566 73.3069C258.566 78.811 262.893 83.3019 268.342 83.521H305.858C311.28 83.2746 315.634 78.7836 315.634 73.3069C315.634 73.17 315.634 73.0057 315.634 72.8688V38.2011C315.415 32.916 311.17 28.6442 305.885 28.4251H268.342V28.3977ZM275.353 38.2011C275.325 38.2011 275.325 38.2011 275.353 38.2011C272.039 38.338 269.383 41.0216 269.246 44.3624V66.1872C269.246 66.2693 269.246 66.3788 269.246 66.461C269.246 69.9113 271.957 72.7592 275.353 72.8962H298.875C302.271 72.7592 304.982 69.9113 304.982 66.461C304.982 66.3788 304.982 66.2693 304.982 66.1872V44.3624C304.845 41.0216 302.189 38.3654 298.875 38.2011H275.353Z" fill="#F5FFFD"/>
<path fill-rule="evenodd" clip-rule="evenodd" d="M442.498 81.7943C442.498 82.7801 443.292 83.6016 444.278 83.6016H451.288C452.274 83.6016 453.068 82.8075 453.068 81.7943V39.1032C453.068 38.9662 453.068 38.802 453.068 38.665C453.068 33.1609 448.769 28.67 443.402 28.4509H407.392C407.255 28.4509 407.091 28.4509 406.954 28.4509C401.368 28.4509 396.85 33.024 396.85 38.6924C396.85 38.8293 396.85 38.9936 396.85 39.1306V81.8217C396.85 82.8075 397.644 83.629 398.63 83.629H405.64C406.626 83.629 407.42 82.8349 407.42 81.8217V64.0497C407.42 63.0639 408.214 62.2424 409.2 62.2424H440.8C441.786 62.2424 442.58 63.0365 442.58 64.0497V81.7943H442.498ZM407.365 52.4116V43.5393C407.365 40.089 410.131 37.2958 413.526 37.2958H436.364C439.76 37.2958 442.526 40.089 442.526 43.5393V52.4116C442.526 53.3974 441.731 54.2189 440.746 54.2189H409.145C408.159 54.2189 407.365 53.4248 407.365 52.4116Z" fill="#F5FFFD"/>
<path fill-rule="evenodd" clip-rule="evenodd" d="M590.508 83.6029C589.523 83.6029 588.728 82.8088 588.728 81.7956V64.0236C588.728 63.0377 587.934 62.2162 586.948 62.2162H554.992C554.006 62.2162 553.212 63.0104 553.212 64.0236V81.7956C553.212 82.7814 552.418 83.6029 551.432 83.6029H544.367C543.381 83.6029 542.587 82.8088 542.587 81.7956V39.1044C542.587 38.9675 542.587 38.8032 542.587 38.6663C542.587 33.0253 547.16 28.4248 552.801 28.4248C552.938 28.4248 553.102 28.4248 553.239 28.4248H589.632C595.054 28.6713 599.408 33.1622 599.408 38.6389C599.408 38.7758 599.408 38.9401 599.408 39.0771V81.7682C599.408 82.754 598.614 83.5755 597.628 83.5755H590.508V83.6029ZM553.212 43.5406V52.4129C553.212 53.3987 554.006 54.2202 554.992 54.2202H586.948C587.934 54.2202 588.728 53.4261 588.728 52.4129V43.5406C588.728 40.0902 585.935 37.2971 582.512 37.2971H559.428C555.978 37.2971 553.212 40.0902 553.212 43.5406Z" fill="#F5FFFD"/>
<path d="M479.471 28.3977C479.992 28.3977 480.485 28.6168 480.813 29.0275L512.25 66.5158C513.318 67.7754 515.371 67.0087 515.371 65.3383V30.205C515.371 29.2192 516.165 28.3977 517.151 28.3977H524.161C525.147 28.3977 525.941 29.1918 525.941 30.205V81.7958C525.941 82.7817 525.147 83.6032 524.161 83.6032H515.453C515.426 83.6032 515.399 83.5758 515.399 83.5484C515.399 83.521 515.399 83.521 515.371 83.4936L483.387 46.2792C482.319 45.0196 480.265 45.8137 480.265 47.4567V81.8232C480.265 82.809 479.471 83.6305 478.486 83.6305H471.421C470.435 83.6305 469.641 82.8364 469.641 81.8232V30.205C469.641 29.2192 470.435 28.3977 471.421 28.3977H479.471Z" fill="#F5FFFD"/>
<path d="M23.231 85.4926C24.1072 84.6163 25.2847 84.1234 26.517 84.1234H140.57C142.651 84.1234 143.692 86.6427 142.213 88.094L119.676 110.631C118.8 111.507 117.622 112 116.39 112H2.33723C0.256073 112 -0.784506 109.481 0.694212 108.029L23.231 85.4926Z" fill="#F5FFFD"/>
<path d="M23.231 1.36918C24.1072 0.492906 25.2847 0 26.517 0H140.57C142.651 0 143.692 2.5193 142.213 3.97063L119.676 26.48C118.8 27.3563 117.622 27.8492 116.39 27.8492H2.33723C0.256073 27.8492 -0.784506 25.3299 0.694212 23.8785L23.231 1.36918Z" fill="#F5FFFD"/>
<path d="M119.676 43.1562C118.8 42.2799 117.622 41.787 116.39 41.787H2.33723C0.256073 41.787 -0.784506 44.3063 0.694212 45.7576L23.231 68.267C24.1072 69.1433 25.2847 69.6362 26.517 69.6362H140.57C142.651 69.6362 143.692 67.1169 142.213 65.6655L119.676 43.1562Z" fill="#F5FFFD"/>
</svg>
