<svg width="173" height="44" viewBox="0 0 173 44" fill="none" xmlns="http://www.w3.org/2000/svg">
<g clip-path="url(#clip0_3_12579)">
<path d="M106.434 13.4751H124.435V18.2122L114.645 31.4769H124.435V37.0559H106.434V32.3188L116.224 19.054H106.434V13.4751Z" fill="#012D24"/>
<path d="M167.18 28.319C169.389 27.476 171.707 25.2656 171.707 21.3703C171.707 16.6332 168.444 13.5798 163.601 13.5798H152.548V37.056H158.654V29.1608H160.97L165.286 37.056H172.339L167.18 28.319ZM162.864 23.6865H158.654V18.9495H162.864C164.443 18.9495 165.496 19.8971 165.496 21.2657C165.496 22.7389 164.443 23.6865 162.864 23.6865Z" fill="#012D24"/>
<path d="M137.703 13.1589C130.544 13.1589 125.494 18.3169 125.494 25.2656C125.494 32.2142 130.65 37.3722 137.703 37.3722C144.756 37.3722 150.02 32.2131 150.02 25.2656C150.02 18.3181 144.861 13.1589 137.703 13.1589ZM137.703 31.898C134.124 31.898 131.702 29.1608 131.702 25.2702C131.702 21.2703 134.124 18.6425 137.703 18.6425C141.282 18.6425 143.809 21.3796 143.809 25.2702C143.809 29.1608 141.282 31.898 137.703 31.898Z" fill="#012D24"/>
<path d="M86.4277 13.4751H103.482V18.9494H92.5334V22.4225H103.166V27.7922H92.5334V31.5816H103.482V37.0559H86.4277V13.4751Z" fill="#012D24"/>
<path d="M25.9035 10.2114C25.9035 4.63011 21.0606 0 15.1654 0C9.27017 0 4.42728 4.63244 4.42728 10.2114V13.4752H0.00878906V36.9514L15.1654 44L30.3254 36.9467V13.5752H25.9069L25.9035 10.2114ZM9.90155 10.2114C9.90155 7.58003 12.2178 5.47427 15.1654 5.47427C18.113 5.47427 20.4292 7.58003 20.4292 10.2114V13.4752H9.90155V10.2114ZM24.2186 33.1608L15.1654 37.3723L6.11212 33.1608V19.0541H24.2186V33.1608Z" fill="#012D24"/>
<path d="M83.5877 21.3703C83.5877 16.6332 80.3238 13.5798 75.4809 13.5798H64.4277V37.056H70.5334V29.1608H72.8496L77.1658 37.056H84.2214L79.0622 28.319C81.2715 27.476 83.5877 25.2656 83.5877 21.3703ZM74.7437 23.6865H70.5334V18.9495H74.7437C76.3228 18.9495 77.3762 19.8971 77.3762 21.2657C77.3762 22.7389 76.3228 23.6865 74.7437 23.6865Z" fill="#012D24"/>
<path d="M42.6426 13.4751H61.6967V19.054H55.1702V37.0559H49.0633V19.054H42.6426V13.4751Z" fill="#012D24"/>
</g>
<defs>
<clipPath id="clip0_3_12579">
<rect width="172.33" height="44" fill="white"/>
</clipPath>
</defs>
</svg>
